<?xml version="1.0" standalone="no"?>
<!DOCTYPE svg PUBLIC "-//W3C//DTD SVG 1.1//EN" "http://www.w3.org/Graphics/SVG/1.1/DTD/svg11.dtd" >
<svg xmlns="http://www.w3.org/2000/svg" xmlns:xlink="http://www.w3.org/1999/xlink" version="1.1">
<metadata>
Created by FontForge 20190801 at Thu Apr  5 09:20:52 2018
 By www-data
</metadata>
<defs>
<font id="plazaicon" horiz-adv-x="1024" >
  <font-face 
    font-family="plazaicon"
    font-weight="400"
    font-stretch="normal"
    units-per-em="1024"
    panose-1="0 0 0 0 0 0 0 0 0 0"
    ascent="960"
    descent="-64"
    bbox="-7.53125 -90 1033 973.261"
    underline-thickness="0"
    underline-position="0"
    unicode-range="U+0001-FFFD"
  />
<missing-glyph 
 />
    <glyph glyph-name=".notdef" unicode="&#xfffd;" 
 />
    <glyph glyph-name="glyph1" horiz-adv-x="0" 
d="M0 0v0v0v0z" />
    <glyph glyph-name="glyph1" horiz-adv-x="0" 
d="M0 0v0v0v0z" />
    <glyph glyph-name="nonmarkingreturn" horiz-adv-x="341" 
 />
    <glyph glyph-name="uni0001" horiz-adv-x="0" 
d="M0 0v0v0v0z" />
    <glyph glyph-name="space" unicode=" " horiz-adv-x="512" 
d="M0 0v0v0v0z" />
    <glyph glyph-name="uniE900" unicode="&#xe900;" 
d="M939 469h-171q-13 0 -24 -8.5t-14 -21.5l-90 -260l-218 644q-3 13 -14 21.5t-24 8.5t-24 -8.5t-14 -21.5l-120 -354h-141q-19 0 -30.5 -11.5t-11.5 -30.5q0 -20 11.5 -31.5t30.5 -11.5h171q13 0 24 8.5t14 21.5l90 260l218 -648q3 -13 14 -21.5t24 -8.5t24 8.5t14 21.5
l120 354h141q19 0 30.5 11.5t11.5 30.5q0 20 -11.5 33.5t-30.5 13.5v0z" />
    <glyph glyph-name="uniE901" unicode="&#xe901;" 
d="M853 853h-682q-55 0 -91.5 -36.5t-36.5 -91.5v-426q0 -55 36.5 -91.5t91.5 -36.5h42q20 0 31.5 11.5t11.5 30.5q0 20 -11.5 31.5t-31.5 11.5h-42q-20 0 -31.5 11.5t-11.5 31.5v426q0 20 11.5 31.5t31.5 11.5h682q20 0 31.5 -11.5t11.5 -31.5v-426q0 -20 -11.5 -31.5
t-31.5 -11.5h-42q-20 0 -31.5 -11.5t-11.5 -31.5q0 -19 11.5 -30.5t31.5 -11.5h42q55 0 91.5 36.5t36.5 91.5v426q0 55 -36.5 91.5t-91.5 36.5zM546 324q-13 16 -33.5 16t-30.5 -16l-213 -256q-7 -9 -9 -21.5t5 -25.5q3 -9 12 -15t22 -6h426q13 0 22.5 6.5t16.5 19.5
q6 12 4 24.5t-9 22.5l-213 251v0zM388 85l124 145l124 -145h-248v0z" />
    <glyph glyph-name="uniE902" unicode="&#xe902;" 
d="M512 896q-98 0 -183 -37q-86 -36 -149.5 -100t-100.5 -149q-36 -86 -36 -183q0 -98 36 -183q37 -86 100.5 -149.5t149.5 -100.5q85 -37 183 -37t183 37q86 37 149.5 100.5t100.5 149.5q36 85 36 183q0 97 -36 183q-37 85 -100.5 149t-149.5 100q-85 37 -183 37zM512 43
q-80 0 -150 30t-122 82t-82 122t-30 150t30 150t82 122t122 82t150 30t150 -30t122 -82t82 -122t30 -150t-30 -150t-82 -122t-122 -82t-150 -30zM512 640q-19 0 -31 -11.5t-12 -31.5v-170q0 -20 12 -31.5t31 -11.5t31 11.5t12 31.5v170q0 20 -12 31.5t-31 11.5v0zM482 286
q-6 -7 -9.5 -13.5t-3.5 -16.5t3.5 -16.5t9.5 -13.5q7 -6 13.5 -9.5t16.5 -3.5t16.5 3.5t13.5 9.5q6 7 9.5 15.5t3.5 14.5t-3.5 14.5t-9.5 15.5q-13 13 -30 13t-30 -13v0z" />
    <glyph glyph-name="uniE903" unicode="&#xe903;" 
d="M969 631l-252 252q-3 7 -11.5 10t-18.5 3h-350q-10 0 -18.5 -3t-11.5 -10l-252 -252q-6 -3 -9 -11.5t-3 -17.5v-355q0 -9 3 -16t9 -13l252 -252q3 -3 11.5 -6t18.5 -3h354q10 0 17 3.5t13 9.5l252 252q6 6 9.5 13t3.5 17v350q-4 9 -7.5 17.5t-9.5 11.5v0zM896 269
l-226 -226h-316l-226 226v316l226 226h320l222 -226v-316v0zM512 640q-19 0 -31 -11.5t-12 -31.5v-170q0 -20 12 -31.5t31 -11.5t31 11.5t12 31.5v170q0 20 -12 31.5t-31 11.5v0zM482 286q-6 -7 -9.5 -13.5t-3.5 -16.5t3.5 -16.5t9.5 -13.5q7 -6 13.5 -9.5t16.5 -3.5
t16.5 3.5t13.5 9.5q6 7 9.5 15.5t3.5 14.5t-3.5 14.5t-9.5 15.5q-13 13 -30 13t-30 -13v0z" />
    <glyph glyph-name="uniE904" unicode="&#xe904;" 
d="M981 192l-358 606q-13 22 -34.5 37.5t-46.5 22.5q-26 6 -51 3t-47 -16q-13 -7 -25 -18.5t-18 -24.5v0v0l-358 -610q-26 -45 -12 -97t59 -78q12 -10 27.5 -13.5t31.5 -3.5h726q25 0 49 9.5t40 28.5q19 20 29 42t10 48q-4 16 -8 33.5t-14 30.5v0zM905 98q-7 -6 -15.5 -9.5
t-14.5 -3.5h-726q-6 0 -10.5 0.5t-10.5 4.5q-16 9 -19.5 26t2.5 33l363 602q3 3 6 8t6 5q16 9 33.5 4.5t26.5 -17.5l363 -602q3 -3 3.5 -9t0.5 -12q3 -10 -1 -16.5t-7 -13.5v0zM512 597q-19 0 -31 -11.5t-12 -30.5v-171q0 -19 12 -31t31 -12t31 12t12 31v171q0 19 -12 30.5
t-31 11.5zM482 243q-6 -6 -9.5 -13t-3.5 -17q0 -9 3.5 -16t9.5 -14q7 -6 13.5 -9t16.5 -3t16.5 3t13.5 9q6 7 9.5 15.5t3.5 14.5q0 7 -3.5 15.5t-9.5 14.5q-13 13 -30 13t-30 -13v0z" />
    <glyph glyph-name="uniE905" unicode="&#xe905;" 
d="M256 555q-19 0 -31 -12t-12 -31t12 -31t31 -12h512q19 0 31 12t12 31t-12 31t-31 12h-512zM128 640h768q19 0 31 11.5t12 31.5q0 19 -12 30.5t-31 11.5h-768q-19 0 -31 -11.5t-12 -30.5q0 -20 12 -31.5t31 -11.5zM896 384h-768q-19 0 -31 -11.5t-12 -31.5q0 -19 12 -30.5
t31 -11.5h768q19 0 31 11.5t12 30.5q0 20 -12 31.5t-31 11.5zM768 213h-512q-19 0 -31 -11.5t-12 -30.5q0 -20 12 -31.5t31 -11.5h512q19 0 31 11.5t12 31.5q0 19 -12 30.5t-31 11.5z" />
    <glyph glyph-name="uniE906" unicode="&#xe906;" 
d="M896 555h-768q-19 0 -31 -12t-12 -31t12 -31t31 -12h768q19 0 31 12t12 31t-12 31t-31 12zM128 640h768q19 0 31 11.5t12 31.5q0 19 -12 30.5t-31 11.5h-768q-19 0 -31 -11.5t-12 -30.5q0 -20 12 -31.5t31 -11.5zM896 384h-768q-19 0 -31 -11.5t-12 -31.5q0 -19 12 -30.5
t31 -11.5h768q19 0 31 11.5t12 30.5q0 20 -12 31.5t-31 11.5zM896 213h-768q-19 0 -31 -11.5t-12 -30.5q0 -20 12 -31.5t31 -11.5h768q19 0 31 11.5t12 31.5q0 19 -12 30.5t-31 11.5z" />
    <glyph glyph-name="uniE907" unicode="&#xe907;" 
d="M128 469h597q20 0 31.5 12t11.5 31t-11.5 31t-31.5 12h-597q-19 0 -31 -12t-12 -31t12 -31t31 -12v0zM128 640h768q19 0 31 11.5t12 31.5q0 19 -12 30.5t-31 11.5h-768q-19 0 -31 -11.5t-12 -30.5q0 -20 12 -31.5t31 -11.5zM896 384h-768q-19 0 -31 -11.5t-12 -31.5
q0 -19 12 -30.5t31 -11.5h768q19 0 31 11.5t12 30.5q0 20 -12 31.5t-31 11.5zM725 213h-597q-19 0 -31 -11.5t-12 -30.5q0 -20 12 -31.5t31 -11.5h597q20 0 31.5 11.5t11.5 31.5q0 19 -11.5 30.5t-31.5 11.5z" />
    <glyph glyph-name="uniE908" unicode="&#xe908;" 
d="M896 555h-597q-20 0 -31.5 -12t-11.5 -31t11.5 -31t31.5 -12h597q19 0 31 12t12 31t-12 31t-31 12zM128 640h768q19 0 31 11.5t12 31.5q0 19 -12 30.5t-31 11.5h-768q-19 0 -31 -11.5t-12 -30.5q0 -20 12 -31.5t31 -11.5zM896 384h-768q-19 0 -31 -11.5t-12 -31.5
q0 -19 12 -30.5t31 -11.5h768q19 0 31 11.5t12 30.5q0 20 -12 31.5t-31 11.5zM896 213h-597q-20 0 -31.5 -11.5t-11.5 -30.5q0 -20 11.5 -31.5t31.5 -11.5h597q19 0 31 11.5t12 31.5q0 19 -12 30.5t-31 11.5z" />
    <glyph glyph-name="uniE909" unicode="&#xe909;" 
d="M939 469h-128q-20 0 -31.5 -11.5t-11.5 -30.5q0 -20 11.5 -31.5t31.5 -11.5h81q-8 -67 -37 -126t-74 -103.5t-103 -72.5q-58 -29 -123 -35v512q54 13 91 59.5t37 106.5q0 71 -50.5 121t-120.5 50t-120.5 -50t-50.5 -121q0 -60 37 -105t91 -61v-516q-67 8 -126 37
q-58 29 -103 73.5t-73 102.5t-35 124h81q20 0 31.5 11.5t11.5 30.5q0 20 -11.5 31.5t-31.5 11.5h-128q-19 0 -30.5 -11.5t-11.5 -31.5q0 -97 36 -183q37 -85 100.5 -148.5t149.5 -100.5q85 -37 183 -37t183 37q86 37 149.5 100.5t100.5 148.5q36 86 36 183q0 23 -11.5 35
t-30.5 12v0zM427 725q0 36 25 61t60 25t60 -25t25 -61q0 -35 -25 -60t-60 -25t-60 25t-25 60v0z" />
    <glyph glyph-name="uniE90A" unicode="&#xe90a;" 
d="M892 154q41 57 65 126.5t24 146.5q0 48 -9.5 95t-28.5 88v2v2q-24 56 -62 104q-37 47 -85.5 83t-106.5 59q-58 24 -122 32h-2h-2q-13 3 -25.5 3.5t-25.5 0.5q-58 0 -111 -13q-54 -13 -102 -37.5t-89 -59.5t-73 -78q0 -3 -2.5 -4t-2.5 -4q-41 -58 -65 -127.5t-24 -145.5
q0 -48 9.5 -95.5t28.5 -92.5v-2v-2q24 -55 62 -102q37 -47 85 -83.5t105 -60.5t119 -32h2.5h2.5q12 0 25 -2t26 -2q57 0 111 13t102 37.5t89 59.5t73 78l6 6t3 7v0zM585 299h-150l-72 128l72 128h150l72 -128zM128 427q0 44 9.5 88t28.5 82l171 -298h-188q-9 28 -15 60
t-6 68v0zM683 555h187q10 -29 16 -61t6 -67q0 -45 -9.5 -89t-29.5 -82l-170 299v0zM832 640h-346l94 162q80 -13 145 -55.5t107 -106.5zM486 811l-170 -299l-94 162q48 58 116 94t148 43v0zM192 213h346l-94 -162q-80 13 -145 55.5t-107 106.5zM538 43l170 298l94 -162
q-48 -57 -116 -93.5t-148 -42.5v0z" />
    <glyph glyph-name="uniE90B" unicode="&#xe90b;" 
d="M981 853h-938q-20 0 -31.5 -11.5t-11.5 -30.5v-214q0 -19 11.5 -30.5t31.5 -11.5h42v-512q0 -20 12 -31.5t31 -11.5h768q19 0 31 11.5t12 31.5v512h42q20 0 31.5 11.5t11.5 30.5v214q0 19 -11.5 30.5t-31.5 11.5v0zM853 85h-682v470h682v-470zM939 640h-854v128h854v-128
zM427 384h170q20 0 31.5 11.5t11.5 31.5q0 19 -11.5 30.5t-31.5 11.5h-170q-20 0 -31.5 -11.5t-11.5 -30.5q0 -20 11.5 -31.5t31.5 -11.5v0z" />
    <glyph glyph-name="uniE90C" unicode="&#xe90c;" 
d="M841 457q-13 12 -30 12t-30 -12l-226 -227v495q0 20 -12 31.5t-31 11.5t-31 -11.5t-12 -31.5v-495l-226 227q-13 12 -30 12t-30 -12q-12 -13 -12 -30t12 -30l299 -299q3 -3 6.5 -5.5t6.5 -2.5q3 -4 8.5 -4.5t8.5 -0.5t8.5 0.5t8.5 4.5q3 3 6.5 4t6.5 4l299 299
q12 13 12 30t-12 30v0z" />
    <glyph glyph-name="uniE90D" unicode="&#xe90d;" 
d="M512 896q-98 0 -183 -37q-86 -36 -149.5 -100t-100.5 -149q-36 -86 -36 -183q0 -98 36 -183q37 -86 100.5 -149.5t149.5 -100.5q85 -37 183 -37t183 37q86 37 149.5 100.5t100.5 149.5q36 85 36 183q0 97 -36 183q-37 85 -100.5 149t-149.5 100q-85 37 -183 37zM512 43
q-80 0 -150 30t-122 82t-82 122t-30 150t30 150t82 122t122 82t150 30t150 -30t122 -82t82 -122t30 -150t-30 -150t-82 -122t-122 -82t-150 -30zM653 457l-98 -99v239q0 20 -12 31.5t-31 11.5t-31 -11.5t-12 -31.5v-239l-98 99q-13 12 -30 12t-30 -12q-12 -13 -12 -30
t12 -30l171 -171q3 -3 6.5 -5.5t6.5 -2.5q3 -4 8.5 -4.5t8.5 -0.5t8.5 0.5t8.5 4.5q3 3 6.5 4t6.5 4l171 171q12 13 12 30t-12 30q-13 12 -30 12t-30 -12v0z" />
    <glyph glyph-name="uniE90E" unicode="&#xe90e;" 
d="M725 256h-324l354 354q13 13 13 30t-13 30t-30 13t-30 -13l-354 -354v324q0 19 -11.5 31t-30.5 12q-20 0 -31.5 -12t-11.5 -31v-427q0 -3 0.5 -8.5t3.5 -8.5q3 -6 9 -12t13 -9q3 -3 8 -3.5t9 -0.5h426q20 0 31.5 11.5t11.5 30.5q0 20 -11.5 31.5t-31.5 11.5v0z" />
    <glyph glyph-name="uniE90F" unicode="&#xe90f;" 
d="M768 640q0 19 -11.5 31t-31.5 12q-19 0 -30.5 -12t-11.5 -31v-324l-354 354q-13 13 -30 13t-30 -13t-13 -30t13 -30l354 -354h-324q-20 0 -31.5 -11.5t-11.5 -31.5q0 -19 11.5 -30.5t31.5 -11.5h426q4 0 9 0.5t8 3.5q7 3 13 9t9 12q3 3 3.5 8.5t0.5 8.5v427z" />
    <glyph glyph-name="uniE910" unicode="&#xe910;" 
d="M811 469h-495l226 226q13 13 13 30t-13 30t-30 13t-30 -13l-299 -298q-3 -4 -5.5 -7t-2.5 -6q-3 -7 -3 -16t3 -18q3 -4 4 -7t4 -6l299 -299q7 -6 15.5 -9.5t14.5 -3.5t14.5 3.5t15.5 9.5q13 13 13 30t-13 30l-226 226h495q19 0 30.5 11.5t11.5 31.5q0 19 -11.5 30.5
t-30.5 11.5v0z" />
    <glyph glyph-name="uniE911" unicode="&#xe911;" 
d="M512 896q-98 0 -183 -37q-86 -36 -149.5 -100t-100.5 -149q-36 -86 -36 -183q0 -98 36 -183q37 -86 100.5 -149.5t149.5 -100.5q85 -37 183 -37t183 37q86 37 149.5 100.5t100.5 149.5q36 85 36 183q0 97 -36 183q-37 85 -100.5 149t-149.5 100q-85 37 -183 37zM512 43
q-80 0 -150 30t-122 82t-82 122t-30 150t30 150t82 122t122 82t150 30t150 -30t122 -82t82 -122t30 -150t-30 -150t-82 -122t-122 -82t-150 -30zM683 469h-239l98 98q13 13 13 30t-13 30t-30 13t-30 -13l-171 -170q-3 -4 -5.5 -7t-2.5 -6q-3 -7 -3 -16t3 -18q3 -4 4 -7t4 -6
l171 -171q7 -6 15.5 -9.5t14.5 -3.5t14.5 3.5t15.5 9.5q13 13 13 30t-13 30l-98 98h239q19 0 30.5 11.5t11.5 31.5q0 19 -11.5 30.5t-30.5 11.5v0z" />
    <glyph glyph-name="uniE912" unicode="&#xe912;" 
d="M849 410q3 6 3 15t-3 19q-3 3 -4 6t-4 7l-299 298q-13 13 -30 13t-30 -13t-13 -30t13 -30l226 -226h-495q-19 0 -30.5 -11.5t-11.5 -30.5q0 -20 11.5 -31.5t30.5 -11.5h495l-226 -226q-13 -13 -13 -30t13 -30q7 -6 15.5 -9.5t14.5 -3.5t14.5 3.5t15.5 9.5l299 299
q3 3 5.5 6t2.5 7v0z" />
    <glyph glyph-name="uniE913" unicode="&#xe913;" 
d="M512 896q-98 0 -183 -37q-86 -36 -149.5 -100t-100.5 -149q-36 -86 -36 -183q0 -98 36 -183q37 -86 100.5 -149.5t149.5 -100.5q85 -37 183 -37t183 37q86 37 149.5 100.5t100.5 149.5q36 85 36 183q0 97 -36 183q-37 85 -100.5 149t-149.5 100q-85 37 -183 37zM512 43
q-80 0 -150 30t-122 82t-82 122t-30 150t30 150t82 122t122 82t150 30t150 -30t122 -82t82 -122t30 -150t-30 -150t-82 -122t-122 -82t-150 -30zM721 444q-3 3 -4 6t-4 7l-171 170q-13 13 -30 13t-30 -13t-13 -30t13 -30l98 -98h-239q-19 0 -30.5 -11.5t-11.5 -30.5
q0 -20 11.5 -31.5t30.5 -11.5h239l-98 -98q-13 -13 -13 -30t13 -30q7 -6 15.5 -9.5t14.5 -3.5t14.5 3.5t15.5 9.5l171 171q3 3 5.5 6t2.5 7q3 9 3 16.5t-3 17.5v0z" />
    <glyph glyph-name="uniE914" unicode="&#xe914;" 
d="M841 457l-299 298q-3 3 -6.5 6t-6.5 3q-6 3 -15 3t-19 -3q-3 -3 -6.5 -4.5t-6.5 -4.5l-299 -298q-12 -13 -12 -30t12 -30q13 -13 30 -13t30 13l226 226v-495q0 -19 12 -31t31 -12t31 12t12 31v495l226 -226q6 -7 14.5 -10t15.5 -3q6 0 14.5 3t15.5 10q12 13 12 30t-12 30
v0z" />
    <glyph glyph-name="uniE915" unicode="&#xe915;" 
d="M512 896q-98 0 -183 -37q-86 -36 -149.5 -100t-100.5 -149q-36 -86 -36 -183q0 -98 36 -183q37 -86 100.5 -149.5t149.5 -100.5q85 -37 183 -37t183 37q86 37 149.5 100.5t100.5 149.5q36 85 36 183q0 97 -36 183q-37 85 -100.5 149t-149.5 100q-85 37 -183 37zM512 43
q-80 0 -150 30t-122 82t-82 122t-30 150t30 150t82 122t122 82t150 30t150 -30t122 -82t82 -122t30 -150t-30 -150t-82 -122t-122 -82t-150 -30zM542 627q-3 3 -6.5 6t-6.5 3q-6 3 -15 3t-19 -3q-3 -3 -6.5 -4.5t-6.5 -4.5l-171 -170q-12 -13 -12 -30t12 -30q13 -13 30 -13
t30 13l98 98v-239q0 -19 12 -31t31 -12t31 12t12 31v239l98 -98q6 -7 14.5 -10t15.5 -3q6 0 14.5 3t15.5 10q12 13 12 30t-12 30z" />
    <glyph glyph-name="uniE916" unicode="&#xe916;" 
d="M401 597h324q20 0 31.5 12t11.5 31t-11.5 31t-31.5 12h-426q-4 0 -9 -0.5t-8 -4.5q-7 -3 -13 -9t-9 -12q-3 -3 -3.5 -8.5t-0.5 -8.5v-427q0 -19 11.5 -30.5t31.5 -11.5q19 0 30.5 11.5t11.5 30.5v325l354 -355q7 -6 15.5 -9t14.5 -3q7 0 15.5 3t14.5 9q13 13 13 30
t-13 30l-354 354v0z" />
    <glyph glyph-name="uniE917" unicode="&#xe917;" 
d="M764 657q-3 6 -9 12t-13 9q-3 4 -8 4.5t-9 0.5h-426q-20 0 -31.5 -12t-11.5 -31t11.5 -31t31.5 -12h324l-354 -354q-13 -13 -13 -30t13 -30q6 -6 13 -9t17 -3q9 0 16 3t14 9l354 355v-325q0 -19 11.5 -30.5t30.5 -11.5q20 0 31.5 11.5t11.5 30.5v427q0 3 -0.5 8.5
t-3.5 8.5v0z" />
    <glyph glyph-name="uniE918" unicode="&#xe918;" 
d="M512 896q-46 0 -92 -9q-45 -8 -87.5 -25.5t-80.5 -42.5q-39 -26 -73 -60q-33 -33 -59 -72q-25 -39 -42.5 -81.5t-26.5 -87.5q-8 -45 -8 -91q0 -98 36 -183q37 -86 100.5 -149.5t149.5 -100.5q85 -37 183 -37q77 0 151 25t135 73q13 10 15.5 28.5t-7.5 31.5
q-9 13 -28 15.5t-31 -6.5q-52 -39 -111.5 -60t-123.5 -21q-80 0 -150 30t-122 82t-82 122t-30 150q0 76 28.5 147t82.5 126q54 54 125 82.5t148 28.5q80 0 150 -30t122 -82t82 -122t30 -150v-43q0 -35 -25 -60t-60 -25q-36 0 -61 25t-25 60v213q0 20 -11.5 31.5t-30.5 11.5
q-20 0 -31.5 -11.5t-11.5 -31.5v0q-26 20 -59.5 31.5t-68.5 11.5q-45 0 -84 -17q-39 -16 -67.5 -45t-45.5 -68q-16 -39 -16 -83q0 -45 16 -84q17 -39 45.5 -68t67.5 -45q39 -17 84 -17q48 0 88.5 20.5t69.5 52.5q22 -32 59 -52.5t82 -20.5q70 0 120 50.5t50 120.5v43
q0 97 -36 183q-37 85 -100.5 149t-149.5 100q-85 37 -183 37v0zM512 299q-54 0 -91 36.5t-37 91.5q0 54 37 91t91 37t91 -37t37 -91q0 -55 -37 -91.5t-91 -36.5z" />
    <glyph glyph-name="uniE919" unicode="&#xe919;" 
d="M853 597q0 71 -27 133t-73 108.5t-108 73.5q-63 27 -133 27t-133 -27q-62 -27 -108 -73.5t-73 -108.5t-27 -133q0 -83 35.5 -153.5t96.5 -114.5l-47 -367q-3 -13 2 -25t15 -18t22 -6t25 6l192 115l192 -115q3 -3 9 -3.5t12 -0.5q7 0 12.5 2.5t9.5 5.5q3 3 11.5 16.5
t5.5 26.5l-47 363q64 44 100 114.5t36 153.5v0zM256 597q0 53 20 100q20 46 55 81t82 55q46 20 99 20t99 -20q47 -20 82 -55t55 -81q20 -47 20 -100q0 -52 -20 -99t-55 -81.5t-82 -54.5q-46 -21 -99 -21t-99 21q-47 20 -82 54.5t-55 81.5t-20 99zM670 38l-137 81q-9 7 -21 7
t-21 -7l-137 -81l30 244q29 -13 61 -19.5t67 -6.5t67 6.5t61 19.5l30 -244v0z" />
    <glyph glyph-name="uniE91A" unicode="&#xe91a;" 
d="M512 555q-19 0 -31 -12t-12 -31v-427q0 -19 12 -30.5t31 -11.5t31 11.5t12 30.5v427q0 19 -12 31t-31 12v0zM768 811q-19 0 -31 -12t-12 -31v-683q0 -19 12 -30.5t31 -11.5t31 11.5t12 30.5v683q0 19 -12 31t-31 12v0zM256 299q-19 0 -31 -12t-12 -31v-171
q0 -19 12 -30.5t31 -11.5t31 11.5t12 30.5v171q0 19 -12 31t-31 12z" />
    <glyph glyph-name="uniE91B" unicode="&#xe91b;" 
d="M768 555q-19 0 -31 -12t-12 -31v-427q0 -19 12 -30.5t31 -11.5t31 11.5t12 30.5v427q0 19 -12 31t-31 12v0zM512 811q-19 0 -31 -12t-12 -31v-683q0 -19 12 -30.5t31 -11.5t31 11.5t12 30.5v683q0 19 -12 31t-31 12v0zM256 384q-19 0 -31 -11.5t-12 -31.5v-256
q0 -19 12 -30.5t31 -11.5t31 11.5t12 30.5v256q0 20 -12 31.5t-31 11.5z" />
    <glyph glyph-name="uniE91C" unicode="&#xe91c;" 
d="M725 725h-597q-54 0 -91 -36.5t-37 -91.5v-341q0 -54 37 -91t91 -37h597q55 0 91.5 37t36.5 91v341q0 55 -36.5 91.5t-91.5 36.5v0zM768 256q0 -19 -11.5 -31t-31.5 -12h-597q-19 0 -31 12t-12 31v341q0 20 12 31.5t31 11.5h597q20 0 31.5 -11.5t11.5 -31.5v-341v0z
M981 512q-19 0 -30.5 -11.5t-11.5 -31.5v-85q0 -19 11.5 -31t30.5 -12q20 0 31.5 12t11.5 31v85q0 20 -11.5 31.5t-31.5 11.5v0z" />
    <glyph glyph-name="uniE91D" unicode="&#xe91d;" 
d="M213 213h-85q-19 0 -31 12t-12 31v341q0 20 12 31.5t31 11.5h137q19 0 30.5 11.5t11.5 31.5q0 19 -11.5 30.5t-30.5 11.5h-137q-54 0 -91 -36.5t-37 -91.5v-341q0 -54 37 -91t91 -37h85q20 0 31.5 11.5t11.5 31.5q0 19 -11.5 30.5t-31.5 11.5v0zM725 725h-85
q-19 0 -31 -11.5t-12 -30.5q0 -20 12 -31.5t31 -11.5h85q20 0 31.5 -11.5t11.5 -31.5v-341q0 -19 -11.5 -31t-31.5 -12h-136q-19 0 -31 -11.5t-12 -30.5q0 -20 12 -31.5t31 -11.5h136q55 0 91.5 37t36.5 91v341q0 55 -36.5 91.5t-91.5 36.5v0zM981 512q-19 0 -30.5 -11.5
t-11.5 -31.5v-85q0 -19 11.5 -31t30.5 -12q20 0 31.5 12t11.5 31v85q0 20 -11.5 31.5t-31.5 11.5v0zM593 448q-6 10 -16 15.5t-22 5.5h-175l128 188q9 16 6 33t-19 27q-16 9 -33 6t-27 -19l-170 -256q-7 -10 -7 -21.5t7 -21.5q3 -9 12 -15t22 -6h175l-128 -188
q-10 -16 -7 -33t19 -26q7 -4 13.5 -6.5t12.5 -2.5q10 0 19 5.5t15 11.5l171 256q6 13 8 23.5t-4 23.5v0z" />
    <glyph glyph-name="uniE91E" unicode="&#xe91e;" 
d="M606 81q-16 10 -33 4.5t-27 -21.5q-9 -16 -26.5 -19.5t-33.5 2.5q-6 3 -9.5 7t-7.5 10q-9 16 -26 19.5t-33 -2.5q-16 -10 -20 -27t3 -33q9 -16 19.5 -26.5t26.5 -20.5q16 -9 32 -13t32 -4q32 0 62 16t49 48q16 16 12 33t-20 27zM939 256q-36 0 -61 25t-25 60v214
q0 70 -27 132t-73 108.5t-108 73.5q-63 27 -133 27t-133 -27q-62 -27 -108 -73.5t-73 -108.5t-27 -132v-214q0 -35 -25 -60t-61 -25q-19 0 -30.5 -11.5t-11.5 -31.5q0 -19 11.5 -30.5t30.5 -11.5h854q19 0 30.5 11.5t11.5 30.5q0 20 -11.5 31.5t-30.5 11.5v0zM235 256
q9 19 15 41t6 44v214q0 52 20 99t55 81.5t82 54.5q46 21 99 21t99 -21q47 -20 82 -54.5t55 -81.5t20 -99v-214q0 -22 6 -44t15 -41h-554v0z" />
    <glyph glyph-name="uniE91F" unicode="&#xe91f;" 
d="M606 81q-16 10 -33 4.5t-27 -21.5q-9 -16 -26.5 -19.5t-33.5 2.5q-6 3 -9.5 7t-7.5 10q-9 16 -26 19.5t-33 -2.5q-16 -10 -20 -27t3 -33q9 -16 19.5 -26.5t26.5 -20.5q16 -9 32 -13t32 -4q32 0 62 16t49 48q16 16 12 33t-20 27zM388 777q47 25 97 30q50 6 97.5 -7.5
t87.5 -43.5q41 -31 68 -78q13 -25 21.5 -58t8.5 -65v-171q0 -19 11.5 -31t31.5 -12q19 0 30.5 12t11.5 31v171q0 44 -11.5 86t-30.5 80q-36 61 -90 102q-54 40 -117 58t-131 10q-67 -7 -127 -42q-16 -6 -21.5 -22.5t4.5 -32.5q9 -16 26 -20t33 3zM1011 -13l-256 256v0v0
l-682 683q-13 13 -30 13t-30 -13t-13 -30t13 -30l183 -183q-13 -32 -19 -64t-6 -64v-214q0 -35 -25 -60t-61 -25q-19 0 -30.5 -11.5t-11.5 -31.5q0 -19 11.5 -30.5t30.5 -11.5h623l243 -244q7 -6 15.5 -9t14.5 -3q7 0 15.5 3t14.5 9q13 13 13 30t-13 30v0zM235 256
q9 19 15 41t6 44v214q0 16 2.5 31.5t6.5 27.5l358 -358h-388v0z" />
    <glyph glyph-name="uniE920" unicode="&#xe920;" 
d="M572 427l205 204q12 13 12 30t-12 30l-235 235q-10 9 -22 12t-25 -4q-13 -3 -19.5 -14t-6.5 -24v-367l-162 162q-13 13 -30 13t-30 -13q-12 -13 -12 -30t12 -30l205 -204l-205 -205q-12 -13 -12 -30t12 -30q13 -13 30 -13t30 13l162 162v-367q0 -12 6.5 -23.5t19.5 -14.5
q3 -3 8.5 -3.5t8.5 -0.5q10 0 16.5 3t13.5 9l235 235q12 13 12 30t-12 30l-205 205v0zM555 794l132 -133l-132 -132v265v0zM555 60v264l132 -132l-132 -132v0z" />
    <glyph glyph-name="uniE921" unicode="&#xe921;" 
d="M742 444q32 29 50.5 69t18.5 84q0 45 -17 84q-16 39 -45 68t-68 45q-39 17 -84 17h-341q-19 0 -31 -12t-12 -31v-683q0 -19 12 -30.5t31 -11.5h384q45 0 84 16q39 17 67.5 45.5t45.5 67.5q16 39 16 84q0 61 -31.5 110t-79.5 78v0zM299 725h298q55 0 91.5 -36.5
t36.5 -91.5q0 -54 -36.5 -91t-91.5 -37h-298v256zM640 128h-341v256h341q54 0 91 -37t37 -91t-37 -91t-91 -37z" />
    <glyph glyph-name="uniE922" unicode="&#xe922;" 
d="M853 896h-576q-60 0 -104.5 -44.5t-44.5 -104.5v-640q0 -61 44.5 -105.5t104.5 -44.5h576q20 0 31.5 12t11.5 31v853q0 20 -11.5 31.5t-31.5 11.5v0zM277 811h534v-555h-534q-16 0 -32 -3.5t-32 -13.5v508q0 25 19.5 44.5t44.5 19.5v0zM277 43q-25 0 -44.5 19t-19.5 45
q0 25 19.5 44.5t44.5 19.5h534v-128h-534v0z" />
    <glyph glyph-name="uniE923" unicode="&#xe923;" 
d="M939 853h-256q-52 0 -97 -23.5t-74 -61.5q-29 38 -74 61.5t-97 23.5h-256q-19 0 -30.5 -11.5t-11.5 -30.5v-640q0 -20 11.5 -31.5t30.5 -11.5h299q35 0 60 -25t25 -60q0 -20 12 -31.5t31 -11.5t31 11.5t12 31.5q0 35 25 60t60 25h299q19 0 30.5 11.5t11.5 31.5v640
q0 19 -11.5 30.5t-30.5 11.5v0zM469 192q-19 10 -41 15.5t-44 5.5h-256v555h213q55 0 91.5 -37t36.5 -91v-448v0zM896 213h-256q-22 0 -44 -5.5t-41 -15.5v448q0 54 36.5 91t91.5 37h213v-555z" />
    <glyph glyph-name="uniE924" unicode="&#xe924;" 
d="M725 853h-426q-55 0 -91.5 -36.5t-36.5 -91.5v-682q0 -13 5.5 -22.5t15.5 -16.5q10 -6 21.5 -4t21.5 9l273 196l273 -196q6 -4 12.5 -6.5t12.5 -2.5q7 0 11 0.5t11 3.5q9 7 15 16.5t6 22.5v682q3 55 -33 91.5t-91 36.5v0zM768 124l-230 166q-7 3 -13.5 6t-12.5 3
t-12.5 -3t-13.5 -6l-230 -166v601q0 20 11.5 31.5t31.5 11.5h426q20 0 31.5 -11.5t11.5 -31.5v-601v0z" />
    <glyph glyph-name="uniE925" unicode="&#xe925;" 
d="M909 742l-342 171v0v0q-25 13 -55.5 13t-59.5 -13l-341 -171q-32 -16 -50 -45.5t-18 -65.5v-405q0 -35 18.5 -67t53.5 -48l342 -171q12 -6 27 -9.5t28 -3.5q16 0 29.5 3.5t25.5 9.5l342 171q32 16 52 46.5t20 68.5v405q0 36 -18.5 65.5t-53.5 45.5zM495 841q3 3 8.5 3.5
t8.5 0.5q6 0 10 -0.5t7 -3.5l316 -158l-333 -167l-333 167l316 158v0zM149 183q-9 7 -15 18t-6 21v392l341 -170v-418l-320 157v0zM870 183l-315 -157v418l341 170v-392q0 -13 -6.5 -22.5t-19.5 -16.5z" />
    <glyph glyph-name="uniE926" unicode="&#xe926;" 
d="M853 683h-128v42q0 55 -36.5 91.5t-91.5 36.5h-170q-55 0 -91.5 -36.5t-36.5 -91.5v-42h-128q-55 0 -91.5 -37t-36.5 -91v-427q0 -54 36.5 -91t91.5 -37h682q55 0 91.5 37t36.5 91v427q0 54 -36.5 91t-91.5 37zM384 725q0 20 11.5 31.5t31.5 11.5h170q20 0 31.5 -11.5
t11.5 -31.5v-42h-256v42v0zM640 597v-512h-256v512h256zM128 128v427q0 19 11.5 30.5t31.5 11.5h128v-512h-128q-20 0 -31.5 12t-11.5 31v0zM896 128q0 -19 -11.5 -31t-31.5 -12h-128v512h128q20 0 31.5 -11.5t11.5 -30.5v-427v0z" />
    <glyph glyph-name="uniE927" unicode="&#xe927;" 
d="M811 811h-86v42q0 20 -11.5 31.5t-30.5 11.5q-20 0 -31.5 -11.5t-11.5 -31.5v-42h-256v42q0 20 -11.5 31.5t-31.5 11.5q-19 0 -30.5 -11.5t-11.5 -31.5v-42h-86q-54 0 -91 -37t-37 -91v-598q0 -54 37 -91t91 -37h598q54 0 91 37t37 91v598q0 54 -37 91t-91 37v0zM213 725
h86v-42q0 -20 11.5 -31.5t30.5 -11.5q20 0 31.5 11.5t11.5 31.5v42h256v-42q0 -20 11.5 -31.5t31.5 -11.5q19 0 30.5 11.5t11.5 31.5v42h86q19 0 30.5 -11.5t11.5 -30.5v-128h-682v128q0 19 11.5 30.5t30.5 11.5v0zM811 43h-598q-19 0 -30.5 11.5t-11.5 30.5v384h682v-384
q0 -19 -11.5 -30.5t-30.5 -11.5z" />
    <glyph glyph-name="uniE928" unicode="&#xe928;" 
d="M896 725h-149l-73 111q-6 7 -15 12t-19 5h-256q-10 0 -19 -5t-15 -12l-73 -111h-149q-54 0 -91 -36.5t-37 -91.5v-469q0 -54 37 -91t91 -37h768q54 0 91 37t37 91v469q0 55 -37 91.5t-91 36.5v0zM939 128q0 -19 -12 -31t-31 -12h-768q-19 0 -31 12t-12 31v469
q0 20 12 31.5t31 11.5h171q9 0 18 5.5t16 11.5l72 111h209l73 -111q10 -6 19.5 -11.5t18.5 -5.5h171q19 0 31 -11.5t12 -31.5v-469v0zM512 597q-45 0 -84 -16q-39 -17 -67.5 -45.5t-45.5 -67.5q-16 -39 -16 -84t16 -84q17 -39 45.5 -67.5t67.5 -45.5q39 -16 84 -16t84 16
q39 17 67.5 45.5t45.5 67.5q16 39 16 84t-16 84q-17 39 -45.5 67.5t-67.5 45.5q-39 16 -84 16zM512 256q-54 0 -91 37t-37 91t37 91t91 37t91 -37t37 -91t-37 -91t-91 -37z" />
    <glyph glyph-name="uniE929" unicode="&#xe929;" 
d="M926 73v0v0l-640 640v0v0l-213 213q-13 13 -30 13t-30 -13t-13 -30t13 -30l141 -141h-26q-54 0 -91 -36.5t-37 -91.5v-469q0 -54 37 -91t91 -37h751l72 -73q7 -6 15.5 -9t14.5 -3q7 0 15.5 3t14.5 9q13 13 13 30t-13 30l-85 86v0zM405 457q4 3 5 4l4 4l179 -179
q-13 -10 -28.5 -18.5t-31.5 -11.5q-25 -3 -49.5 1t-44.5 20q-22 16 -35.5 36t-19.5 45q-3 26 3 51t18 48v0zM128 85q-19 0 -31 12t-12 31v469q0 20 12 31.5t31 11.5h111l115 -115q-6 -7 -10 -11t-7 -11q-26 -35 -33 -75.5t-1 -81.5q6 -42 30 -78.5t60 -58.5q25 -19 56 -28.5
t63 -9.5q10 0 19.5 0.5t18.5 3.5q29 6 54.5 19t48.5 32l141 -141h-666v0zM896 725h-149l-73 111q-6 7 -15 12t-19 5h-256q-19 0 -31 -11.5t-12 -30.5q0 -20 12 -31.5t31 -11.5h235l72 -111q7 -6 16 -11.5t18 -5.5h171q19 0 31 -11.5t12 -31.5v-396q0 -20 11.5 -31.5
t30.5 -11.5q20 0 31.5 11.5t11.5 31.5v396q0 55 -37 91.5t-91 36.5v0z" />
    <glyph glyph-name="uniE92A" unicode="&#xe92a;" 
d="M94 294q-16 4 -32 -7t-19 -27q-4 -16 5.5 -32t28.5 -19q51 -10 86.5 -45.5t45.5 -86.5q3 -16 15 -25t28 -9h4h4q16 3 27 17.5t7 33.5q-16 77 -69.5 130.5t-130.5 69.5v0zM853 811h-682q-55 0 -91.5 -37t-36.5 -91v-86q0 -19 11.5 -30.5t30.5 -11.5q20 0 31.5 11.5
t11.5 30.5v86q0 19 11.5 30.5t31.5 11.5h682q20 0 31.5 -11.5t11.5 -30.5v-512q0 -20 -11.5 -31.5t-31.5 -11.5h-256q-19 0 -30.5 -11.5t-11.5 -31.5q0 -19 11.5 -30.5t30.5 -11.5h256q55 0 91.5 36.5t36.5 91.5v512q0 54 -36.5 91t-91.5 37v0zM90 465q-16 3 -30 -8t-17 -30
q-4 -16 7.5 -30t30.5 -17q59 -7 111 -32t92 -65t66 -93q26 -52 34 -113q0 -13 11 -23.5t27 -10.5h2.5h2.5q16 3 27 17t11 30q-8 75 -39 140q-32 65 -81.5 114.5t-114.5 81.5q-65 31 -140 39v0zM55 115q-6 -6 -9 -13t-3 -17q0 -9 3 -16t9 -14q7 -6 14 -9t16 -3q10 0 17 3
t13 9q7 7 10 14t3 16q0 10 -3 17t-10 13q-13 13 -30 13t-30 -13v0z" />
    <glyph glyph-name="uniE92B" unicode="&#xe92b;" 
d="M883 713q-13 12 -30 12t-30 -12l-439 -440l-183 184q-13 12 -30 12t-30 -12q-13 -13 -13 -30t13 -30l213 -214q7 -6 13.5 -9t16.5 -3t16.5 3t13.5 9l469 470q13 13 13 30t-13 30v0z" />
    <glyph glyph-name="uniE92C" unicode="&#xe92c;" 
d="M939 508q-20 0 -31.5 -12t-11.5 -31v-38q0 -80 -30 -150t-82 -122t-122 -82t-150 -30v0v0q-80 0 -150 30t-122 82t-82 122t-30 150t30 150t82 122t122 82t150 30v0v0q42 0 80.5 -9t77.5 -25q16 -7 32.5 -1t22.5 22q7 16 1 32.5t-22 22.5q-45 20 -93 31.5t-99 11.5v0v0
q-98 0 -183 -37q-86 -36 -149.5 -100t-100.5 -149q-36 -86 -36 -183q0 -98 36 -183q37 -86 100.5 -149.5t149.5 -100.5q85 -37 183 -37v0v0q98 0 183 37q86 37 149.5 100.5t100.5 149.5q36 85 36 183v38q0 19 -11.5 31t-30.5 12v0zM414 499q-13 13 -30 13t-30 -13t-13 -30
t13 -30l128 -128q7 -6 13.5 -9t16.5 -3t16.5 3t13.5 9l427 427q12 13 12 30t-12 30q-13 13 -30 13t-30 -13l-397 -397l-98 98v0z" />
    <glyph glyph-name="uniE92D" unicode="&#xe92d;" 
d="M969 798q-13 13 -30 13t-30 -13l-397 -397l-98 98q-13 13 -30 13t-30 -13t-13 -30t13 -30l128 -128q7 -6 15.5 -9t14.5 -3t14.5 3t15.5 9l427 427q12 13 12 30t-12 30v0zM896 469q-19 0 -31 -11.5t-12 -30.5v-299q0 -19 -11.5 -31t-30.5 -12h-598q-19 0 -30.5 12
t-11.5 31v597q0 20 11.5 31.5t30.5 11.5h470q19 0 30.5 11.5t11.5 31.5q0 19 -11.5 30.5t-30.5 11.5h-470q-54 0 -91 -36.5t-37 -91.5v-597q0 -54 37 -91t91 -37h598q54 0 91 37t37 91v299q0 19 -12 30.5t-31 11.5v0z" />
    <glyph glyph-name="uniE92E" unicode="&#xe92e;" 
d="M798 585q-13 12 -30 12t-30 -12l-226 -227l-226 227q-13 12 -30 12t-30 -12q-13 -13 -13 -30t13 -30l256 -256q7 -7 15.5 -10t14.5 -3t14.5 3t15.5 10l256 256q13 13 13 30t-13 30v0z" />
    <glyph glyph-name="uniE92F" unicode="&#xe92f;" 
d="M444 427l226 226q13 13 13 30t-13 30q-13 12 -30 12t-30 -12l-256 -256q-13 -13 -13 -30t13 -30l256 -256q7 -7 15.5 -10t14.5 -3t14.5 3t15.5 10q13 13 13 30t-13 30l-226 226v0z" />
    <glyph glyph-name="uniE930" unicode="&#xe930;" 
d="M670 457l-256 256q-13 12 -30 12t-30 -12q-13 -13 -13 -30t13 -30l226 -226l-226 -226q-13 -13 -13 -30t13 -30q7 -7 13.5 -10t16.5 -3t16.5 3t13.5 10l256 256q13 13 13 30t-13 30v0z" />
    <glyph glyph-name="uniE931" unicode="&#xe931;" 
d="M798 329l-256 256q-13 12 -30 12t-30 -12l-256 -256q-13 -13 -13 -30t13 -30t30 -13t30 13l226 226l226 -226q7 -7 15.5 -10t14.5 -3t14.5 3t15.5 10q13 13 13 30t-13 30z" />
    <glyph glyph-name="uniE932" unicode="&#xe932;" 
d="M695 414l-183 -184l-183 184q-13 13 -30 13t-30 -13t-13 -30t13 -30l213 -213q7 -7 15.5 -10t14.5 -3t14.5 3t15.5 10l213 213q13 13 13 30t-13 30t-30 13t-30 -13zM482 439q7 -6 15.5 -9t14.5 -3t14.5 3t15.5 9l213 214q13 13 13 30t-13 30q-13 12 -30 12t-30 -12
l-183 -184l-183 184q-13 12 -30 12t-30 -12q-13 -13 -13 -30t13 -30l213 -214v0z" />
    <glyph glyph-name="uniE933" unicode="&#xe933;" 
d="M316 427l183 183q13 13 13 30t-13 30t-30 13t-30 -13l-213 -213q-13 -13 -13 -30t13 -30l213 -214q7 -6 15.5 -9t14.5 -3q7 0 15.5 3t14.5 9q13 13 13 30t-13 30l-183 184v0zM614 427l184 183q13 13 13 30t-13 30t-30 13t-30 -13l-213 -213q-13 -13 -13 -30t13 -30
l213 -214q7 -6 15.5 -9t14.5 -3t14.5 3t15.5 9q13 13 13 30t-13 30l-184 184v0z" />
    <glyph glyph-name="uniE934" unicode="&#xe934;" 
d="M798 457l-213 213q-13 13 -30 13t-30 -13t-13 -30t13 -30l183 -183l-183 -184q-13 -13 -13 -30t13 -30q6 -6 14.5 -9t15.5 -3q6 0 14.5 3t15.5 9l213 214q13 13 13 30t-13 30v0zM499 457l-213 213q-13 13 -30 13t-30 -13t-13 -30t13 -30l184 -183l-184 -184
q-13 -13 -13 -30t13 -30q7 -6 13.5 -9t16.5 -3t16.5 3t13.5 9l213 214q13 13 13 30t-13 30v0z" />
    <glyph glyph-name="uniE935" unicode="&#xe935;" 
d="M329 439l183 184l183 -184q7 -6 15.5 -9t14.5 -3q7 0 15.5 3t14.5 9q13 13 13 30t-13 30l-213 214q-13 12 -30 12t-30 -12l-213 -214q-13 -13 -13 -30t13 -30q13 -12 30 -12t30 12v0zM542 414q-13 13 -30 13t-30 -13l-213 -213q-13 -13 -13 -30t13 -30t30 -13t30 13
l183 183l183 -183q7 -7 15.5 -10t14.5 -3q7 0 15.5 3t14.5 10q13 13 13 30t-13 30l-213 213v0z" />
    <glyph glyph-name="uniE936" unicode="&#xe936;" 
d="M943 610v3v-3q-29 64 -73 117q-44 52 -99.5 90t-120.5 58q-66 21 -138 21q-58 0 -111 -13q-54 -13 -102 -37.5t-89 -59.5t-73 -78q0 -3 -2.5 -4t-2.5 -4q-41 -58 -65 -127.5t-24 -145.5q0 -90 31 -170q32 -79 87 -141t130 -103q75 -40 161 -51h2.5h2.5q12 0 25 -2.5
t26 -2.5q97 0 183 37q85 37 149 100.5t100 149.5q37 85 37 183q3 48 -6 95t-28 88zM512 811q50 0 96 -13q47 -12 88 -34.5t76 -53.5q34 -32 60 -70h-320q-67 0 -119 -37t-77 -91l-94 162q25 32 58 57q32 26 69.5 43.5t78.5 26.5q41 10 84 10v0zM640 427q0 -55 -37 -91.5
t-91 -36.5t-91 36.5t-37 91.5q0 54 37 91t91 37t91 -37t37 -91zM128 427q0 44 9.5 88t28.5 82l158 -277l0.5 -2t4.5 -2q28 -45 76.5 -74t106.5 -29q6 0 12.5 0.5t13.5 4.5l-99 -167q-65 11 -122 45t-99 84t-66 113t-24 134v0zM538 43l157 277v2v2q13 23 19.5 48.5t6.5 54.5
q0 35 -11.5 68.5t-31.5 59.5h192q10 -29 16 -61t6 -67q1 -77 -26 -145t-75 -119.5t-113 -83.5t-140 -36v0z" />
    <glyph glyph-name="uniE937" unicode="&#xe937;" 
d="M512 896q-98 0 -183 -37q-86 -36 -149.5 -100t-100.5 -149q-36 -86 -36 -183q0 -98 36 -183q37 -86 100.5 -149.5t149.5 -100.5q85 -37 183 -37t183 37q86 37 149.5 100.5t100.5 149.5q36 85 36 183q0 97 -36 183q-37 85 -100.5 149t-149.5 100q-85 37 -183 37zM512 43
q-80 0 -150 30t-122 82t-82 122t-30 150t30 150t82 122t122 82t150 30t150 -30t122 -82t82 -122t30 -150t-30 -150t-82 -122t-122 -82t-150 -30z" />
    <glyph glyph-name="uniE938" unicode="&#xe938;" 
d="M768 811h-43q0 35 -25 60t-60 25h-256q-35 0 -60 -25t-25 -60h-43q-54 0 -91 -37t-37 -91v-598q0 -54 37 -91t91 -37h512q54 0 91 37t37 91v598q0 54 -37 91t-91 37zM384 811h256v-86h-256v43v0v0v0v0v43v0zM811 85q0 -19 -12 -30.5t-31 -11.5h-512q-19 0 -31 11.5
t-12 30.5v598q0 19 12 30.5t31 11.5h43q0 -35 25 -60t60 -25h256q35 0 60 25t25 60h43q19 0 31 -11.5t12 -30.5v-598z" />
    <glyph glyph-name="uniE939" unicode="&#xe939;" 
d="M512 896q-98 0 -183 -37q-86 -36 -149.5 -100t-100.5 -149q-36 -86 -36 -183q0 -98 36 -183q37 -86 100.5 -149.5t149.5 -100.5q85 -37 183 -37t183 37q86 37 149.5 100.5t100.5 149.5q36 85 36 183q0 97 -36 183q-37 85 -100.5 149t-149.5 100q-85 37 -183 37zM512 43
q-80 0 -150 30t-122 82t-82 122t-30 150t30 150t82 122t122 82t150 30t150 -30t122 -82t82 -122t30 -150t-30 -150t-82 -122t-122 -82t-150 -30zM700 380l-145 72v231q0 19 -12 30.5t-31 11.5t-31 -11.5t-12 -30.5v-256q0 -13 6.5 -22.5t19.5 -16.5l171 -85q3 -3 6.5 -3.5
t10.5 -0.5q12 0 22 6t16 19t0.5 29.5t-21.5 26.5z" />
    <glyph glyph-name="uniE93A" unicode="&#xe93a;" 
d="M768 555h-21q-23 64 -66 116.5t-101 87.5q-67 39 -141.5 50.5t-148.5 -7.5q-77 -22 -137 -68.5t-102 -110.5q-38 -67 -50 -142t8 -148q16 -64 51 -118q35 -53 84.5 -91.5t109.5 -59.5t126 -21v0v0h384q53 0 99 20q47 20 81.5 55t55.5 81q20 47 20 100q0 52 -20 99
q-19 47 -53 81.5t-80 54.5q-46 21 -99 21v0zM768 128h-384v0v0q-51 0 -98 17q-47 16 -85.5 46t-66.5 70q-27 41 -40 89q-16 61 -7 118.5t41 111.5q32 55 79 89.5t104 47.5q16 3 35 5.5t38 2.5q50 0 96 -16q47 -16 86 -45.5t67 -71.5t41 -93q3 -13 15 -23.5t28 -10.5h51
q70 0 120.5 -50t50.5 -121q0 -67 -50.5 -116.5t-120.5 -49.5v0z" />
    <glyph glyph-name="uniE93B" unicode="&#xe93b;" 
d="M341 171q-19 0 -30.5 -12t-11.5 -31v-85q0 -20 11.5 -31.5t30.5 -11.5q20 0 31.5 11.5t11.5 31.5v85q0 19 -11.5 31t-31.5 12v0zM341 427q-19 0 -30.5 -12t-11.5 -31v-85q0 -20 11.5 -31.5t30.5 -11.5q20 0 31.5 11.5t11.5 31.5v85q0 19 -11.5 31t-31.5 12v0zM683 171
q-20 0 -31.5 -12t-11.5 -31v-85q0 -20 11.5 -31.5t31.5 -11.5q19 0 30.5 11.5t11.5 31.5v85q0 19 -11.5 31t-30.5 12zM683 427q-20 0 -31.5 -12t-11.5 -31v-85q0 -20 11.5 -31.5t31.5 -11.5q19 0 30.5 11.5t11.5 31.5v85q0 19 -11.5 31t-30.5 12zM512 85q-19 0 -31 -11.5
t-12 -30.5v-86q0 -19 12 -30.5t31 -11.5t31 11.5t12 30.5v86q0 19 -12 30.5t-31 11.5zM512 341q-19 0 -31 -11.5t-12 -30.5v-86q0 -19 12 -30.5t31 -11.5t31 11.5t12 30.5v86q0 19 -12 30.5t-31 11.5zM1003 529q-32 70 -95 112t-140 42h-21q-24 70 -72 124q-47 54 -108.5 87
t-133.5 42q-71 9 -143 -10q-78 -19 -139 -66q-61 -46 -98.5 -109.5t-49.5 -139.5q-11 -76 10 -154q16 -61 50 -114t82 -91q13 -10 31.5 -9t28.5 17q9 13 8 31.5t-17 28.5q-38 29 -63.5 71t-38.5 87q-16 59 -7 118q9 58 38.5 108t75.5 86q47 36 106 51q59 16 118 6
q59 -9 108.5 -38t85.5 -76t51 -106q3 -13 15 -23.5t28 -10.5h55q51 0 93 -27t65 -75q13 -32 15 -66.5t-11 -66.5t-35 -56.5t-54 -36.5q-16 -7 -22 -23.5t0 -32.5q7 -13 16.5 -19.5t22.5 -6.5q3 0 8 1t9 4q48 19 82.5 56t53.5 85q16 51 13.5 101.5t-21.5 98.5v0z" />
    <glyph glyph-name="uniE93C" unicode="&#xe93c;" 
d="M1020 478q-10 45 -34 82q-23 38 -57 65t-75 42q-41 16 -86 16v0v0h-21q-24 70 -72 124q-47 54 -108.5 87t-133.5 42q-71 9 -143 -10q-77 -19 -137 -65t-102 -110q-38 -67 -50 -142t8 -148q19 -77 68 -139t119 -100q16 -10 33 -6.5t27 19.5t4.5 33t-21.5 26
q-54 29 -91.5 78t-53.5 110q-16 58 -7 115t41 111q29 51 77.5 87.5t105.5 49.5q60 16 118 7q59 -9 108.5 -38.5t85.5 -76.5q37 -46 51 -106q3 -12 15 -23t28 -11h51v0v0q61 0 107.5 -37.5t58.5 -98.5q13 -71 -26 -129.5t-106 -71.5q-16 -3 -26.5 -17.5t-7.5 -33.5
q3 -16 15 -25t28 -9h4h4q51 11 93 41q41 29 68 70.5t38 90.5q11 50 2 101v0zM640 256h-175l128 188q10 16 6.5 33t-19.5 26q-16 10 -33 7t-26 -19l-171 -256q-7 -10 -7 -21.5t7 -21.5q3 -10 12 -15.5t22 -5.5h175l-128 -188q-10 -16 -6.5 -33t19.5 -27q6 -3 12.5 -5.5
t12.5 -2.5q10 0 19 5t15 12l171 256q7 9 7 21t-7 21q-6 10 -13.5 18t-20.5 8v0z" />
    <glyph glyph-name="uniE93D" unicode="&#xe93d;" 
d="M410 725q48 -4 90 -23q43 -18 77 -47.5t59 -67.5q25 -39 38 -84q3 -12 15 -23t28 -11h51v0v0q16 0 34 -3t34 -9q64 -29 91.5 -93.5t-1.5 -128.5q-7 -16 -1 -32.5t22 -23.5q3 -3 8.5 -3.5t8.5 -0.5q13 0 24 6.5t15 19.5q20 48 20 98q0 51 -18.5 97t-53.5 84q-35 37 -85 58
q-22 6 -47 11.5t-51 5.5h-21q-20 52 -52 97q-33 45 -76 78.5t-94 54.5t-107 26q-19 0 -31.5 -11.5t-15.5 -27.5q-3 -19 10 -31t29 -16v0zM73 926q-13 13 -30 13t-30 -13t-13 -30t13 -30l132 -132q-48 -39 -82.5 -89.5t-53.5 -111.5q-23 -73 -14 -148t48 -142q25 -46 61 -83
t80 -63t93 -40q50 -14 103 -14h2h2h384q16 0 30 2.5t30 5.5l123 -124q7 -6 15.5 -9t14.5 -3q7 0 15.5 3t14.5 9q13 13 13 30t-13 30l-938 939v0zM384 128q-42 -2 -81 8t-73.5 30t-62.5 50q-28 29 -48 66q-28 51 -34.5 109.5t9.5 116.5q13 51 43 92t72 70l542 -542h-367v0z
" />
    <glyph glyph-name="uniE93E" unicode="&#xe93e;" 
d="M683 427q-20 0 -31.5 -12t-11.5 -31v-341q0 -20 11.5 -31.5t31.5 -11.5q19 0 30.5 11.5t11.5 31.5v341q0 19 -11.5 31t-30.5 12v0zM341 427q-19 0 -30.5 -12t-11.5 -31v-341q0 -20 11.5 -31.5t30.5 -11.5q20 0 31.5 11.5t11.5 31.5v341q0 19 -11.5 31t-31.5 12v0z
M512 341q-19 0 -31 -11.5t-12 -30.5v-342q0 -19 12 -30.5t31 -11.5t31 11.5t12 30.5v342q0 19 -12 30.5t-31 11.5zM1003 529q-32 70 -95 112t-140 42h-21q-24 70 -72 124q-47 54 -108.5 87t-133.5 42q-71 9 -143 -10q-78 -19 -139 -66q-61 -46 -98.5 -109.5t-49.5 -139.5
q-11 -76 10 -154q16 -61 50 -114t82 -91q13 -10 31.5 -9t28.5 17q9 13 8 31.5t-17 28.5q-38 29 -63.5 71t-38.5 87q-16 59 -7 118q9 58 38.5 108t75.5 86q47 36 106 51q59 16 118 6q59 -9 108.5 -38t85.5 -76t51 -106q3 -13 15 -23.5t28 -10.5h55q51 0 93 -27t65 -75
q13 -32 15 -66.5t-11 -66.5t-35 -56.5t-54 -36.5q-16 -7 -22 -23.5t0 -32.5q7 -13 16.5 -19.5t22.5 -6.5q3 0 8 1t9 4q48 19 82.5 56t53.5 85q16 51 13.5 101.5t-21.5 98.5v0z" />
    <glyph glyph-name="uniE93F" unicode="&#xe93f;" 
d="M1003 486q-32 71 -95 112.5t-140 41.5h-21q-24 70 -72 124q-47 54 -108.5 87t-133.5 42q-71 9 -143 -10q-78 -19 -139 -65q-61 -47 -98.5 -110.5t-49.5 -139.5q-11 -76 10 -154q16 -61 50 -114t82 -91q13 -10 31.5 -8.5t28.5 17.5q9 12 8 31t-17 28q-38 29 -63.5 71
t-38.5 87q-16 59 -7 118t38.5 108.5t75.5 85.5q47 36 106 51q59 16 118 7t108.5 -38.5t85.5 -76.5q36 -46 51 -105q3 -13 15 -24t28 -11h55q51 0 93 -27t65 -75q13 -32 15 -66t-11 -66t-35 -56.5t-54 -37.5q-16 -7 -22 -23.5t0 -32.5q7 -12 16.5 -18.5t22.5 -6.5q3 0 8 0.5
t9 3.5q48 19 82.5 56t53.5 85q16 51 13.5 101.5t-21.5 98.5v0zM311 286q-6 -7 -9 -13.5t-3 -16.5t3 -16.5t9 -13.5q7 -6 14 -9.5t16 -3.5q10 0 17 3.5t13 9.5q7 7 10 13.5t3 16.5t-3 16.5t-10 13.5q-13 13 -30 13t-30 -13v0zM311 115q-6 -6 -9 -13t-3 -17q0 -9 3 -16t9 -14
q7 -6 14 -9t16 -3q10 0 17 3t13 9q7 7 10 14t3 16q0 10 -3 17t-10 13q-13 13 -30 13t-30 -13v0zM482 201q-6 -7 -9.5 -14t-3.5 -16q0 -10 3.5 -17t9.5 -13q7 -7 13.5 -10t16.5 -3t16.5 3t13.5 10q6 6 9.5 14.5t3.5 15.5q0 6 -3.5 14.5t-9.5 15.5q-13 12 -30 12t-30 -12v0z
M482 30q-6 -7 -9.5 -13.5t-3.5 -16.5t3.5 -16.5t9.5 -13.5q7 -6 13.5 -9.5t16.5 -3.5t16.5 3.5t13.5 9.5q6 7 9.5 15.5t3.5 14.5t-3.5 14.5t-9.5 15.5q-13 13 -30 13t-30 -13v0zM653 286q-7 -7 -10 -13.5t-3 -16.5t3 -16.5t10 -13.5q6 -6 14.5 -9.5t15.5 -3.5q6 0 14.5 3.5
t15.5 9.5q6 7 9 15.5t3 14.5t-3 14.5t-9 15.5q-13 13 -30 13t-30 -13v0zM653 115q-7 -6 -10 -13t-3 -17q0 -9 3 -16t10 -14q6 -6 14.5 -9t15.5 -3q6 0 14.5 3t15.5 9q6 7 9 15.5t3 14.5q0 7 -3 15.5t-9 14.5q-13 13 -30 13t-30 -13v0z" />
    <glyph glyph-name="uniE940" unicode="&#xe940;" 
d="M969 457l-256 256q-13 12 -30 12t-30 -12q-13 -13 -13 -30t13 -30l226 -226l-226 -226q-13 -13 -13 -30t13 -30q6 -7 14.5 -10t15.5 -3q6 0 14.5 3t15.5 10l256 256q12 13 12 30t-12 30v0zM371 713q-13 12 -30 12t-30 -12l-256 -256q-12 -13 -12 -30t12 -30l256 -256
q7 -7 14 -10t16 -3q10 0 17 3t13 10q13 13 13 30t-13 30l-226 226l226 226q13 13 13 30t-13 30v0z" />
    <glyph glyph-name="uniE941" unicode="&#xe941;" 
d="M981 269v4v4v299v4v5v0.5v3.5t-2 6t-2 7v0v0v0v0q-3 3 -4 5.5t-4 2.5v0v0v0l-427 277h-2h-2h-2.5h-2.5q-6 4 -14.5 4t-15.5 -4h-2h-2h-2h-2l-427 -277q-6 0 -10 -2.5t-7 -5.5v0v0v0v0q-3 -7 -4 -10.5t-4 -6.5v-1v-4v-4v-4v-299v-4v-4v-1v-4t2 -6t2 -7v0v0v0v0
q3 -3 4 -5.5t4 -2.5l427 -277h2h2h2.5h2.5l4.5 -2.5t7.5 -2.5q4 0 7 0.5t6 4.5h2.5h2.5h2h2l426 277q4 3 7 5.5t6 2.5v0v0v0v0q10 10 12 14.5t5 7.5v0v0v0zM128 495l98 -68l-98 -69v137v0zM512 329l-141 98l141 98l141 -98l-141 -98v0zM555 597v180l307 -201l-137 -98
l-170 119v0zM469 597l-170 -119l-137 98l307 201v-180v0zM299 375l170 -119v-175l-307 201l137 93v0zM555 256l170 119l137 -93l-307 -205v179v0zM798 427l98 68v-137l-98 69v0z" />
    <glyph glyph-name="uniE942" unicode="&#xe942;" 
d="M768 341h-85v171h85q70 0 120.5 50t50.5 121q0 70 -50.5 120t-120.5 50t-120.5 -50t-50.5 -120v-86h-170v86q0 70 -50.5 120t-120.5 50t-120.5 -50t-50.5 -120q0 -71 50.5 -121t120.5 -50h85v-171h-85q-70 0 -120.5 -50t-50.5 -120q0 -71 50.5 -121t120.5 -50t120.5 50
t50.5 121v85h170v-85q0 -71 50.5 -121t120.5 -50t120.5 50t50.5 121q0 70 -50.5 120t-120.5 50zM683 683q0 35 25 60t60 25t60 -25t25 -60q0 -36 -25 -61t-60 -25h-85v86zM341 171q0 -36 -25 -61t-60 -25t-60 25t-25 61q0 35 25 60t60 25h85v-85v0zM341 597h-85
q-35 0 -60 25t-25 61q0 35 25 60t60 25t60 -25t25 -60v-86v0zM597 341h-170v171h170v-171zM768 85q-35 0 -60 25t-25 61v85h85q35 0 60 -25t25 -60q0 -36 -25 -61t-60 -25z" />
    <glyph glyph-name="uniE943" unicode="&#xe943;" 
d="M512 896q-98 0 -183 -37q-86 -36 -149.5 -100t-100.5 -149q-36 -86 -36 -183q0 -98 36 -183q37 -86 100.5 -149.5t149.5 -100.5q85 -37 183 -37t183 37q86 37 149.5 100.5t100.5 149.5q36 85 36 183q0 97 -36 183q-37 85 -100.5 149t-149.5 100q-85 37 -183 37zM512 43
q-80 0 -150 30t-122 82t-82 122t-30 150t30 150t82 122t122 82t150 30t150 -30t122 -82t82 -122t30 -150t-30 -150t-82 -122t-122 -82t-150 -30zM678 649l-268 -90q-10 -3 -18.5 -11.5t-11.5 -18.5l-90 -273q-3 -13 -0.5 -24.5t9.5 -18.5q6 -6 13 -9t17 -3q3 0 6 0.5t6 3.5
l273 89q10 4 16.5 10t9.5 16l90 273q3 13 0 24.5t-9 18.5q-6 9 -18 12.5t-25 0.5v0zM567 371l-170 -55l55 170l171 56z" />
    <glyph glyph-name="uniE944" unicode="&#xe944;" 
d="M853 597h-384q-54 0 -91 -36.5t-37 -91.5v-384q0 -54 37 -91t91 -37h384q55 0 91.5 37t36.5 91v384q0 55 -36.5 91.5t-91.5 36.5zM896 85q0 -19 -11.5 -30.5t-31.5 -11.5h-384q-19 0 -30.5 11.5t-11.5 30.5v384q0 20 11.5 31.5t30.5 11.5h384q20 0 31.5 -11.5t11.5 -31.5
v-384zM213 341h-42q-20 0 -31.5 12t-11.5 31v384q0 19 11.5 31t31.5 12h384q19 0 30.5 -12t11.5 -31v-43q0 -19 12 -30.5t31 -11.5t31 11.5t12 30.5v43q0 54 -37 91t-91 37h-384q-55 0 -91.5 -37t-36.5 -91v-384q0 -54 36.5 -91t91.5 -37h42q20 0 31.5 11.5t11.5 31.5
q0 19 -11.5 30.5t-31.5 11.5v0z" />
    <glyph glyph-name="uniE945" unicode="&#xe945;" 
d="M853 811q-19 0 -30.5 -12t-11.5 -31v-299q0 -54 -37 -91t-91 -37h-410l141 141q13 13 13 30t-13 30t-30 13t-30 -13l-213 -213q-3 -4 -6 -7t-3 -6q-3 -7 -3 -16t3 -18q3 -4 4.5 -7t4.5 -6l213 -214q7 -6 13.5 -9t16.5 -3t16.5 3t13.5 9q13 13 13 30t-13 30l-141 141h410
q44 0 83 17q39 16 68 45t45 68q17 39 17 83v299q0 19 -11.5 31t-31.5 12v0z" />
    <glyph glyph-name="uniE946" unicode="&#xe946;" 
d="M892 282q3 6 3 15t-3 19q-3 3 -4.5 6t-4.5 7l-213 213q-13 13 -30 13t-30 -13t-13 -30t13 -30l141 -141h-410q-54 0 -91 37t-37 91v299q0 19 -11.5 31t-30.5 12q-20 0 -31.5 -12t-11.5 -31v-299q0 -44 17 -83q16 -39 45 -68t68 -45q39 -17 83 -17h410l-141 -141
q-13 -13 -13 -30t13 -30q7 -6 15.5 -9t14.5 -3t14.5 3t15.5 9l213 214l6 6t3 7v0z" />
    <glyph glyph-name="uniE947" unicode="&#xe947;" 
d="M853 811h-298q-45 0 -84 -17q-39 -16 -68 -45t-45 -68q-17 -39 -17 -84v-409l-140 141q-13 12 -30 12t-30 -12q-13 -13 -13 -30t13 -30l213 -214q3 -3 6.5 -5.5t6.5 -2.5q3 -3 8.5 -3.5t8.5 -0.5t8.5 0.5t8.5 3.5t6.5 4t6.5 4l213 214q13 13 13 30t-13 30q-13 12 -30 12
t-30 -12l-140 -141v409q0 55 36.5 91.5t91.5 36.5h298q20 0 31.5 12t11.5 31t-11.5 31t-31.5 12v0z" />
    <glyph glyph-name="uniE948" unicode="&#xe948;" 
d="M853 128h-298q-55 0 -91.5 37t-36.5 91v410l140 -141q7 -7 14 -10t16 -3q10 0 17 3t13 10q13 13 13 30t-13 30l-213 213q-3 3 -6.5 5.5t-6.5 2.5q-10 4 -17 4t-17 -4q-3 0 -6.5 -2.5t-6.5 -5.5l-213 -213q-13 -13 -13 -30t13 -30t30 -13t30 13l140 141v-410q0 -45 17 -84
q16 -39 45 -67.5t68 -45.5q39 -16 84 -16h298q20 0 31.5 11.5t11.5 30.5q0 20 -11.5 31.5t-31.5 11.5v0z" />
    <glyph glyph-name="uniE949" unicode="&#xe949;" 
d="M883 329q-13 12 -30 12t-30 -12l-140 -141v409q0 45 -17 84q-16 39 -45 68t-68 45q-39 17 -84 17h-298q-20 0 -31.5 -12t-11.5 -31t11.5 -31t31.5 -12h298q55 0 91.5 -36.5t36.5 -91.5v-409l-140 141q-13 12 -30 12t-30 -12q-13 -13 -13 -30t13 -30l213 -214
q3 -3 6.5 -5.5t6.5 -2.5q3 -3 8.5 -3.5t8.5 -0.5t8.5 0.5t8.5 3.5t6.5 4t6.5 4l213 214q13 13 13 30t-13 30v0z" />
    <glyph glyph-name="uniE94A" unicode="&#xe94a;" 
d="M883 585l-213 213q-3 3 -6.5 5.5t-6.5 2.5q-6 4 -15 4t-19 -4q-3 -3 -6.5 -4t-6.5 -4l-213 -213q-13 -13 -13 -30t13 -30t30 -13t30 13l140 141v-410q0 -54 -36.5 -91t-91.5 -37h-298q-20 0 -31.5 -11.5t-11.5 -31.5q0 -19 11.5 -30.5t31.5 -11.5h298q45 0 84 16
q39 17 68 45.5t45 67.5q17 39 17 84v410l140 -141q7 -7 14 -10t16 -3q10 0 17 3t13 10q13 13 13 30t-13 30v0z" />
    <glyph glyph-name="uniE94B" unicode="&#xe94b;" 
d="M683 597h-410l141 141q13 13 13 30t-13 30t-30 13t-30 -13l-213 -213q-3 -4 -6 -7t-3 -6q-3 -10 -3 -17.5t3 -16.5q3 -4 4.5 -7t4.5 -6l213 -214q7 -6 13.5 -9t16.5 -3t16.5 3t13.5 9q13 13 13 30t-13 30l-141 141h410q54 0 91 -37t37 -91v-299q0 -19 11.5 -30.5
t30.5 -11.5q20 0 31.5 11.5t11.5 30.5v299q0 45 -17 84q-16 39 -45 67.5t-68 45.5q-39 16 -83 16v0z" />
    <glyph glyph-name="uniE94C" unicode="&#xe94c;" 
d="M892 538q3 6 3 15t-3 19q-3 3 -4.5 6t-4.5 7l-213 213q-13 13 -30 13t-30 -13t-13 -30t13 -30l141 -141h-410q-44 0 -83 -16q-39 -17 -68 -45.5t-45 -67.5q-17 -39 -17 -84v-299q0 -19 11.5 -30.5t31.5 -11.5q19 0 30.5 11.5t11.5 30.5v299q0 54 37 91t91 37h410
l-141 -141q-13 -13 -13 -30t13 -30q7 -6 15.5 -9t14.5 -3t14.5 3t15.5 9l213 214l6 6t3 7v0z" />
    <glyph glyph-name="uniE94D" unicode="&#xe94d;" 
d="M640 597h-256q-19 0 -31 -11.5t-12 -30.5v-256q0 -20 12 -31.5t31 -11.5h256q19 0 31 11.5t12 31.5v256q0 19 -12 30.5t-31 11.5zM597 341h-170v171h170v-171zM981 384h-85v128h85q20 0 31.5 11.5t11.5 31.5q0 19 -11.5 30.5t-31.5 11.5h-85v86q0 54 -37 91t-91 37h-85
v85q0 19 -12 31t-31 12t-31 -12t-12 -31v-85h-170v85q0 19 -12 31t-31 12t-31 -12t-12 -31v-85h-85q-54 0 -91 -37t-37 -91v-86h-85q-20 0 -31.5 -11.5t-11.5 -30.5q0 -20 11.5 -31.5t31.5 -11.5h85v-128h-85q-20 0 -31.5 -11.5t-11.5 -31.5q0 -19 11.5 -30.5t31.5 -11.5h85
v-128q0 -55 37 -91.5t91 -36.5h85v-86q0 -19 12 -30.5t31 -11.5t31 11.5t12 30.5v86h170v-86q0 -19 12 -30.5t31 -11.5t31 11.5t12 30.5v86h85q54 0 91 36.5t37 91.5v128h85q20 0 31.5 11.5t11.5 30.5q0 20 -11.5 31.5t-31.5 11.5v0zM811 171q0 -20 -12 -31.5t-31 -11.5
h-512q-19 0 -31 11.5t-12 31.5v512q0 19 12 30.5t31 11.5h512q19 0 31 -11.5t12 -30.5v-512z" />
    <glyph glyph-name="uniE94E" unicode="&#xe94e;" 
d="M896 811h-768q-54 0 -91 -37t-37 -91v-512q0 -55 37 -91.5t91 -36.5h768q54 0 91 36.5t37 91.5v512q0 54 -37 91t-91 37zM128 725h768q19 0 31 -11.5t12 -30.5v-128h-854v128q0 19 12 30.5t31 11.5v0zM896 128h-768q-19 0 -31 11.5t-12 31.5v298h854v-298
q0 -20 -12 -31.5t-31 -11.5v0z" />
    <glyph glyph-name="uniE94F" unicode="&#xe94f;" 
d="M981 213h-170v384q0 55 -37 91.5t-91 36.5l-380 -4v175q0 19 -12 31t-31 12v0v0q-16 0 -29 -12t-13 -31v-175h-175q-20 0 -31.5 -13.5t-11.5 -29.5t13.5 -29t29.5 -13v0v0h175l-5 -380q0 -54 37 -91t91 -37h384v-171q0 -19 12 -30.5t31 -11.5t31 11.5t12 30.5v171h170
q20 0 31.5 11.5t11.5 31.5q0 19 -11.5 30.5t-31.5 11.5v0zM341 213q-19 0 -30.5 12t-11.5 31l4 380l380 4q19 0 30.5 -11.5t11.5 -31.5v-384h-384v0z" />
    <glyph glyph-name="uniE950" unicode="&#xe950;" 
d="M512 896q-98 0 -183 -37q-86 -36 -149.5 -100t-100.5 -149q-36 -86 -36 -183q0 -98 36 -183q37 -86 100.5 -149.5t149.5 -100.5q85 -37 183 -37t183 37q86 37 149.5 100.5t100.5 149.5q36 85 36 183q0 97 -36 183q-37 85 -100.5 149t-149.5 100q-85 37 -183 37zM555 47
v124q0 19 -12 30.5t-31 11.5t-31 -11.5t-12 -30.5v-124q-67 8 -126 37q-58 29 -103 74t-73 103q-28 57 -35 123h124q19 0 31 11.5t12 31.5q0 19 -12 30.5t-31 11.5h-124q7 68 35 126q28 59 73 103.5t103 73.5q59 28 126 34v-123q0 -20 12 -31.5t31 -11.5t31 11.5t12 31.5
v123q67 -8 126 -37q58 -29 103 -73.5t73 -102.5t35 -124h-124q-19 0 -31 -11.5t-12 -30.5q0 -20 12 -31.5t31 -11.5h124q-7 -67 -35 -126t-73 -103.5t-103 -72.5q-59 -29 -126 -35v0z" />
    <glyph glyph-name="uniE951" unicode="&#xe951;" 
d="M512 896q-77 0 -153 -10q-76 -11 -137 -32t-99 -53t-38 -76v-597q0 -43 38 -75t99 -53.5t137 -31.5q76 -11 153 -11t153 11q76 10 137 31.5t99 53.5t38 75v597q0 44 -38 76t-99 53t-137 32q-76 10 -153 10v0zM853 427q0 -8 -20 -23q-20 -14 -62 -28t-107 -24
q-64 -11 -152 -11t-152 11q-65 10 -107 24t-62 28q-20 15 -20 23v192q30 -16 69 -28t83.5 -20t92.5 -12t96 -4t96 4t92.5 12t83.5 20t69 28v-192zM512 811q83 0 147 -11q64 -10 107 -24t65 -28q22 -15 22 -23t-22 -22t-65 -28t-107 -25q-64 -10 -147 -10t-147 10
q-64 11 -107 25t-65 28t-22 22t22 23q22 14 65 28t107 24q64 11 147 11zM512 43q-88 0 -152 10q-65 10 -107 24t-62 29q-20 14 -20 22v192q30 -16 69 -28t83.5 -20t92.5 -12t96 -4t96 4t92.5 12t83.5 20t69 28v-192q0 -8 -20 -22q-20 -15 -62 -29t-107 -24q-64 -10 -152 -10
z" />
    <glyph glyph-name="uniE952" unicode="&#xe952;" 
d="M896 811h-555q-9 0 -18 -3.5t-16 -9.5l-298 -341q-10 -13 -10 -28t10 -28l298 -341q7 -10 16 -13.5t18 -3.5h555q54 0 91 36.5t37 91.5v512q0 54 -37 91t-91 37zM939 171q0 -20 -12 -31.5t-31 -11.5h-533l-261 299l261 298h533q19 0 31 -11.5t12 -30.5v-512zM798 585
q-13 12 -30 12t-30 -12l-98 -99l-98 99q-13 12 -30 12t-30 -12q-13 -13 -13 -30t13 -30l98 -98l-98 -98q-13 -13 -13 -30t13 -30q7 -7 15.5 -10t14.5 -3t14.5 3t15.5 10l98 98l98 -98q7 -7 15.5 -10t14.5 -3t14.5 3t15.5 10q13 13 13 30t-13 30l-98 98l98 98q13 13 13 30
t-13 30v0z" />
    <glyph glyph-name="uniE953" unicode="&#xe953;" 
d="M512 896q-98 0 -183 -37q-86 -36 -149.5 -100t-100.5 -149q-36 -86 -36 -183q0 -98 36 -183q37 -86 100.5 -149.5t149.5 -100.5q85 -37 183 -37t183 37q86 37 149.5 100.5t100.5 149.5q36 85 36 183q0 97 -36 183q-37 85 -100.5 149t-149.5 100q-85 37 -183 37zM512 43
q-80 0 -150 30t-122 82t-82 122t-30 150t30 150t82 122t122 82t150 30t150 -30t122 -82t82 -122t30 -150t-30 -150t-82 -122t-122 -82t-150 -30zM512 597q-70 0 -120.5 -50t-50.5 -120q0 -71 50.5 -121t120.5 -50t120.5 50t50.5 121q0 70 -50.5 120t-120.5 50zM512 341
q-35 0 -60 25t-25 61q0 35 25 60t60 25t60 -25t25 -60q0 -36 -25 -61t-60 -25z" />
    <glyph glyph-name="uniE954" unicode="&#xe954;" 
d="M619 469h-64v214h170q20 0 31.5 11.5t11.5 30.5q0 20 -11.5 31.5t-31.5 11.5h-170v128q0 19 -12 31t-31 12t-31 -12t-12 -31v-128h-64q-80 0 -136 -56t-56 -136t56 -136t136 -56h64v-213h-213q-19 0 -31 -12t-12 -31t12 -31t31 -12h213v-128q0 -19 12 -30.5t31 -11.5
t31 11.5t12 30.5v128h64q80 0 136 56t56 136t-56 136t-136 56v0zM405 469q-44 0 -75 31t-31 76t31 76t75 31h64v-214h-64v0zM619 171h-64v213h64q44 0 75 -31t31 -76q0 -44 -31 -75t-75 -31v0z" />
    <glyph glyph-name="uniE955" unicode="&#xe955;" 
d="M896 341q-19 0 -31 -11.5t-12 -30.5v-171q0 -19 -11.5 -31t-30.5 -12h-598q-19 0 -30.5 12t-11.5 31v171q0 19 -12 30.5t-31 11.5t-31 -11.5t-12 -30.5v-171q0 -54 37 -91t91 -37h598q54 0 91 37t37 91v171q0 19 -12 30.5t-31 11.5v0zM482 269q3 -3 6.5 -6t6.5 -3
q3 -3 8.5 -3.5t8.5 -0.5t8.5 0.5t8.5 3.5t6.5 4.5t6.5 4.5l213 213q13 13 13 30t-13 30t-30 13t-30 -13l-140 -141v410q0 19 -12 30.5t-31 11.5t-31 -11.5t-12 -30.5v-410l-140 141q-13 13 -30 13t-30 -13t-13 -30t13 -30l213 -213v0z" />
    <glyph glyph-name="uniE956" unicode="&#xe956;" 
d="M653 243l-98 -98v282q0 19 -12 30.5t-31 11.5t-31 -11.5t-12 -30.5v-282l-98 98q-13 13 -30 13t-30 -13q-12 -13 -12 -30t12 -30l171 -170q3 -3 6.5 -6t6.5 -3q3 -3 8.5 -3.5t8.5 -0.5t8.5 0.5t8.5 3.5t6.5 4.5t6.5 4.5l171 170q12 13 12 30t-12 30q-13 13 -30 13
t-30 -13v0zM977 491q-35 48 -90 77t-119 29v0v0h-21q-24 71 -72 125q-47 54 -108.5 86.5t-133.5 42.5q-71 9 -143 -10q-77 -20 -137 -64t-102 -111q-38 -68 -50 -142.5t8 -148.5q12 -44 32.5 -84.5t52.5 -72.5q13 -13 30 -15t30 10q12 13 14.5 30t-10.5 30
q-23 26 -40.5 57.5t-23.5 66.5q-16 57 -7 116t41 110t79 87.5t104 48.5q60 16 118 7q59 -9 108.5 -38t85.5 -76q37 -47 51 -106q3 -13 15 -23.5t28 -10.5h51v0v0q42 0 78.5 -18.5t62.5 -54.5q19 -28 27.5 -60t2.5 -68q-7 -35 -25 -63t-44 -47q-16 -10 -18.5 -27t10.5 -33
q6 -10 15 -13.5t19 -3.5q6 0 12.5 2.5t13.5 5.5q41 29 69 72t37 95q10 51 -6 99t-45 93v0z" />
    <glyph glyph-name="uniE957" unicode="&#xe957;" 
d="M785 614l-243 239q-7 7 -13.5 10t-16.5 3v0q-10 0 -16.5 -3t-13.5 -10l-239 -239v0v0q-57 -54 -86 -125t-29 -148q0 -76 28.5 -147t82.5 -126q54 -54 125 -82.5t148 -28.5v0v0q77 0 148 28.5t125 82.5q56 56 84 127t28 145t-28 145q-28 72 -84 129v0zM725 128
q-44 -42 -98 -63.5t-115 -21.5v0v0q-61 0 -114 21.5t-95 63.5q-45 45 -67.5 99t-22.5 114q0 61 22 114.5t64 94.5v0v0l209 214l213 -214q45 -43 67 -97q23 -55 23.5 -112t-21.5 -113q-21 -55 -65 -100v0z" />
    <glyph glyph-name="uniE958" unicode="&#xe958;" 
d="M853 354q-19 0 -30.5 -11.5t-11.5 -31.5v-226q0 -19 -12 -30.5t-31 -11.5h-597q-20 0 -31.5 11.5t-11.5 30.5v598q0 19 11.5 30.5t31.5 11.5h226q19 0 30.5 12t11.5 31t-11.5 31t-30.5 12h-226q-55 0 -91.5 -37t-36.5 -91v-598q0 -54 36.5 -91t91.5 -37h597q54 0 91 37
t37 91v226q0 20 -11.5 31.5t-31.5 11.5v0zM969 713l-171 170q-13 13 -30 13t-30 -13l-427 -426q-6 -7 -9 -14t-3 -16v-171q0 -19 11.5 -31t30.5 -12h171q10 0 16.5 3.5t13.5 9.5l427 427q12 13 12 30t-12 30v0zM495 299h-111v111l384 384l111 -111z" />
    <glyph glyph-name="uniE959" unicode="&#xe959;" 
d="M926 627l-213 214q-13 12 -30 12t-30 -12l-555 -555q-6 -7 -9.5 -13.5t-3.5 -16.5v-213q0 -20 12 -31.5t31 -11.5h213q10 0 17 3t13 10l555 554q13 13 13 30t-13 30v0zM324 85h-153v154l512 512l153 -154l-512 -512v0z" />
    <glyph glyph-name="uniE95A" unicode="&#xe95a;" 
d="M128 171h171q9 0 16 3t14 9l469 470q13 13 13 30t-13 30l-171 170q-13 13 -30 13t-30 -13l-469 -469q-6 -7 -9.5 -13.5t-3.5 -16.5v-171q0 -19 12 -30.5t31 -11.5v0zM171 367l426 427l111 -111l-426 -427h-111v111v0zM896 43h-768q-19 0 -31 -12t-12 -31t12 -31t31 -12
h768q19 0 31 12t12 31t-12 31t-31 12z" />
    <glyph glyph-name="uniE95B" unicode="&#xe95b;" 
d="M768 427q-19 0 -31 -12t-12 -31v-256q0 -19 -11.5 -31t-30.5 -12h-470q-19 0 -30.5 12t-11.5 31v469q0 20 11.5 31.5t30.5 11.5h256q20 0 31.5 11.5t11.5 31.5q0 19 -11.5 30.5t-31.5 11.5h-256q-54 0 -91 -36.5t-37 -91.5v-469q0 -54 37 -91t91 -37h470q54 0 91 37
t37 91v256q0 19 -12 31t-31 12v0zM934 828q-3 6 -9 12t-12 9q-3 3 -8.5 3.5t-8.5 0.5h-256q-19 0 -31 -11.5t-12 -30.5q0 -20 12 -31.5t31 -11.5h154l-397 -397q-13 -13 -13 -30t13 -30q6 -6 13 -9t17 -3q9 0 16 3t14 9l396 397v-153q0 -20 12 -31.5t31 -11.5t31 11.5
t12 31.5v256q0 3 -0.5 8.5t-4.5 8.5v0z" />
    <glyph glyph-name="uniE95C" unicode="&#xe95c;" 
d="M1020 444q-3 6 -38 64t-99.5 125.5t-157.5 122.5t-213 55t-213 -55t-157.5 -122.5t-99.5 -125.5t-38 -64q-3 -10 -3 -19.5t3 -19.5q3 -4 38 -62q35 -57 99.5 -124t157.5 -121q93 -55 213 -55t213 55t157.5 122t99.5 125t38 65q3 6 3 16.5t-3 17.5v0zM512 128
q-86 0 -157 37t-124.5 86.5t-89.5 99.5q-35 50 -51 76q14 25 49 75q36 50 90 99.5t125 86.5q72 37 158 37t157 -37t124.5 -86.5t89.5 -99.5q35 -50 51 -75q-16 -26 -51 -76q-36 -50 -89.5 -99.5t-124.5 -86.5t-157 -37v0zM512 597q-70 0 -120.5 -50t-50.5 -120
q0 -71 50.5 -121t120.5 -50t120.5 50t50.5 121q0 70 -50.5 120t-120.5 50zM512 341q-35 0 -60 25t-25 61q0 35 25 60t60 25t60 -25t25 -60q0 -36 -25 -61t-60 -25z" />
    <glyph glyph-name="uniE95D" unicode="&#xe95d;" 
d="M431 717q19 3 40.5 5.5t40.5 2.5q86 0 157 -37t124.5 -86.5t89.5 -99.5q35 -50 51 -75q-16 -29 -35 -57t-41 -50q-13 -13 -11 -31.5t15 -28.5q6 -6 12.5 -7t12.5 -1q10 0 19 3.5t16 13.5q28 32 51.5 69t46.5 76q6 9 6 19t-6 19q-3 3 -38 60q-35 56 -99.5 122.5
t-157.5 121.5t-213 55q-26 0 -51 -3.5t-47 -9.5q-19 -3 -28 -17.5t-6 -33.5q6 -16 20.5 -24.5t30.5 -5.5v0zM1011 -13l-938 939q-13 13 -30 13t-30 -13t-13 -30t13 -30l183 -183q-57 -52 -105 -110t-87 -125q-6 -10 -6 -19.5t6 -18.5q3 -7 38 -65t99.5 -125t157.5 -122
t213 -55q67 0 130 19t117 57l192 -192q7 -6 15.5 -9t14.5 -3q7 0 15.5 3t14.5 9q13 13 13 30t-13 30v0zM427 452l106 -106q-6 -4 -12.5 -4.5t-12.5 -0.5q-16 0 -31.5 6t-28.5 16q-13 12 -19.5 27.5t-6.5 31.5q0 7 2.5 14t2.5 16v0zM512 128q-86 0 -157 37t-124.5 86.5
t-89.5 99.5q-35 50 -51 76q32 57 73.5 105.5t92.5 90.5l107 -111q-13 -22 -19.5 -47.5t-6.5 -50.5q0 -35 15 -66t41 -54q22 -22 52.5 -34.5t62.5 -12.5h2h2q22 0 44 8t41 18l98 -98q-41 -22 -88 -34.5t-95 -12.5v0z" />
    <glyph glyph-name="uniE95E" unicode="&#xe95e;" 
d="M768 640q19 0 31 11.5t12 31.5v170q0 20 -12 31.5t-31 11.5h-128q-53 0 -99 -20q-47 -20 -82 -55t-55 -82q-20 -46 -20 -99v-85h-85q-20 0 -31.5 -12t-11.5 -31v-171q0 -19 11.5 -30.5t31.5 -11.5h85v-299q0 -19 11.5 -31t31.5 -12h170q20 0 31.5 12t11.5 31v299h85
q16 0 28 9t15 25l43 170q3 10 0.5 19.5t-9.5 19.5q-6 9 -15 11t-19 2h-128v85h128v0zM597 469h116l-22 -85h-94q-19 0 -30.5 -11.5t-11.5 -31.5v-298h-86v298q0 20 -11.5 31.5t-30.5 11.5h-86v85h86q19 0 30.5 12t11.5 31v128q0 70 50.5 120.5t120.5 50.5h85v-86h-85
q-35 0 -60 -25t-25 -60v-128q0 -19 11.5 -31t30.5 -12v0z" />
    <glyph glyph-name="uniE95F" unicode="&#xe95f;" 
d="M964 461l-384 298q-9 7 -21.5 9t-25.5 -4q-9 -7 -15 -16.5t-6 -22.5v-597q0 -13 6.5 -22.5t19.5 -15.5q3 -4 8 -4.5t9 -0.5q6 0 12.5 3t12.5 6l384 299q7 6 12 15t5 19q0 9 -3.5 18t-13.5 16v0zM597 213v427l273 -213l-273 -214v0zM111 759q-10 7 -21.5 9t-21.5 -4
q-13 -7 -19 -16.5t-6 -22.5v-597q0 -13 6 -22.5t19 -15.5q3 -4 8.5 -4.5t8.5 -0.5q7 0 13.5 3t12.5 6l384 299q6 6 11.5 15t5.5 19q0 9 -3.5 18t-13.5 16l-384 298v0zM128 213v427l273 -213l-273 -214v0z" />
    <glyph glyph-name="uniE960" unicode="&#xe960;" 
d="M892 811q-43 43 -99 64q-55 22 -112.5 22t-112.5 -22q-55 -21 -99 -64l-286 -290q-6 -7 -9 -14t-3 -16v-346l-116 -115q-12 -13 -12 -30t12 -30q7 -6 14 -9.5t16 -3.5q10 0 17 3.5t13 9.5l115 115h346q10 0 16.5 3.5t13.5 9.5l286 290q45 43 67 98t22 112t-22 112
q-22 56 -67 101v0zM559 171h-243l85 85h243l-85 -85v0zM832 448v0v0l-102 -107h-0.5h-4.5h-239l227 226q12 13 12 30t-12 30q-13 13 -30 13t-30 -13l-299 -298v0v0l-98 -99v244l277 277q32 32 72 48q39 16 80 16t80 -16t71 -48q31 -32 46 -72t14.5 -81t-16.5 -80
q-16 -40 -48 -70v0z" />
    <glyph glyph-name="uniE961" unicode="&#xe961;" 
d="M892 572q-3 3 -4.5 6t-4.5 7l-298 298q-4 3 -7 6t-6 3q-3 3 -8.5 3.5t-8.5 0.5h-299q-54 0 -91 -37t-37 -91v-683q0 -54 37 -91t91 -37h512q54 0 91 37t37 91v470q0 3 -0.5 8.5t-3.5 8.5v0zM597 751l154 -154h-154v154zM768 43h-512q-19 0 -31 11.5t-12 30.5v683
q0 19 12 31t31 12h256v-256q0 -20 11.5 -31.5t31.5 -11.5h256v-427q0 -19 -12 -30.5t-31 -11.5v0z" />
    <glyph glyph-name="uniE962" unicode="&#xe962;" 
d="M892 614q-3 4 -4.5 7t-4.5 6l-256 256l-6 6t-7 3q-3 3 -8 3.5t-9 0.5h-341q-54 0 -91 -37t-37 -91v-683q0 -54 37 -91t91 -37h512q54 0 91 37t37 91v512q0 4 -0.5 9t-3.5 8zM640 751l111 -111h-111v111zM768 43h-512q-19 0 -31 11.5t-12 30.5v683q0 19 12 31t31 12h299
v-214q0 -19 11.5 -30.5t30.5 -11.5h214v-470q0 -19 -12 -30.5t-31 -11.5v0zM640 341h-256q-19 0 -31 -11.5t-12 -30.5q0 -20 12 -31.5t31 -11.5h256q19 0 31 11.5t12 31.5q0 19 -12 30.5t-31 11.5z" />
    <glyph glyph-name="uniE963" unicode="&#xe963;" 
d="M892 614q-3 4 -4.5 7t-4.5 6l-256 256l-6 6t-7 3q-3 3 -8 3.5t-9 0.5h-341q-54 0 -91 -37t-37 -91v-683q0 -54 37 -91t91 -37h512q54 0 91 37t37 91v512q0 4 -0.5 9t-3.5 8zM640 751l111 -111h-111v111zM768 43h-512q-19 0 -31 11.5t-12 30.5v683q0 19 12 31t31 12h299
v-214q0 -19 11.5 -30.5t30.5 -11.5h214v-470q0 -19 -12 -30.5t-31 -11.5v0zM640 341h-85v86q0 19 -12 30.5t-31 11.5t-31 -11.5t-12 -30.5v-86h-85q-19 0 -31 -11.5t-12 -30.5q0 -20 12 -31.5t31 -11.5h85v-85q0 -20 12 -31.5t31 -11.5t31 11.5t12 31.5v85h85q19 0 31 11.5
t12 31.5q0 19 -12 30.5t-31 11.5z" />
    <glyph glyph-name="uniE964" unicode="&#xe964;" 
d="M892 614q-3 4 -4.5 7t-4.5 6l-256 256l-6 6t-7 3q-3 3 -8 3.5t-9 0.5h-341q-54 0 -91 -37t-37 -91v-683q0 -54 37 -91t91 -37h512q54 0 91 37t37 91v512q0 4 -0.5 9t-3.5 8zM640 751l111 -111h-111v111zM768 43h-512q-19 0 -31 11.5t-12 30.5v683q0 19 12 31t31 12h299
v-214q0 -19 11.5 -30.5t30.5 -11.5h214v-470q0 -19 -12 -30.5t-31 -11.5v0zM683 427h-342q-19 0 -30.5 -12t-11.5 -31t11.5 -31t30.5 -12h342q19 0 30.5 12t11.5 31t-11.5 31t-30.5 12v0zM683 256h-342q-19 0 -30.5 -11.5t-11.5 -31.5q0 -19 11.5 -30.5t30.5 -11.5h342
q19 0 30.5 11.5t11.5 30.5q0 20 -11.5 31.5t-30.5 11.5v0zM341 512h86q19 0 30.5 11.5t11.5 31.5q0 19 -11.5 30.5t-30.5 11.5h-86q-19 0 -30.5 -11.5t-11.5 -30.5q0 -20 11.5 -31.5t30.5 -11.5v0z" />
    <glyph glyph-name="uniE965" unicode="&#xe965;" 
d="M845 896h-666q-57 0 -96.5 -39.5t-39.5 -97.5v-665q0 -58 39.5 -97.5t96.5 -39.5h666q57 0 96.5 39.5t39.5 97.5v665q0 58 -39.5 97.5t-96.5 39.5zM768 597h128v-128h-128v128zM683 469h-342v342h342v-342zM256 469h-128v128h128v-128zM128 384h128v-128h-128v128z
M341 384h342v-341h-342v341v0zM768 384h128v-128h-128v128zM896 759v-76h-128v128h77q22 0 36.5 -14.5t14.5 -37.5zM179 811h77v-128h-128v76q0 23 14.5 37.5t36.5 14.5zM128 94v77h128v-128h-77q-22 0 -36.5 14t-14.5 37v0zM845 43h-77v128h128v-77q0 -23 -14.5 -37
t-36.5 -14z" />
    <glyph glyph-name="uniE966" unicode="&#xe966;" 
d="M977 828q-6 13 -16 19t-22 6h-854q-12 0 -22 -6t-16 -19q-6 -10 -4 -21.5t8 -21.5l333 -392v-265q0 -13 6.5 -22.5t19.5 -15.5l170 -86q3 -3 7 -3.5t10 -0.5q7 0 12.5 0.5t9.5 3.5q9 7 15 16.5t6 22.5v350l333 392q6 10 8 21.5t-4 21.5v0zM563 435q-3 -6 -5.5 -13
t-2.5 -17v-294l-86 43v251q0 7 -2.5 15t-5.5 11l-282 337h670l-286 -333v0z" />
    <glyph glyph-name="uniE967" unicode="&#xe967;" 
d="M870 849q-12 6 -24.5 3.5t-22.5 -11.5l-32 -15t-108 -15q-42 0 -79 12.5t-75 25.5q-42 19 -87.5 33t-100.5 14q-102 0 -148 -24.5t-52 -30.5q-7 -7 -10 -14t-3 -16v-811q0 -19 11.5 -31t31.5 -12q19 0 30.5 12t11.5 31v277q13 7 45 14.5t83 7.5q42 0 79 -13t75 -26
q42 -16 87.5 -31.5t100.5 -15.5q102 0 148 24.5t52 31.5q7 6 10 13t3 17v512q0 12 -6.5 22t-19.5 16v0zM811 320q-13 -6 -45 -13.5t-83 -7.5q-42 0 -79 12.5t-75 25.5q-42 19 -87.5 33t-100.5 14q-41 0 -73 -5.5t-55 -11.5v422q13 7 45 14.5t83 7.5q42 0 79 -13t75 -26
q42 -19 87.5 -33t100.5 -14q41 0 73 5.5t55 11.5v-422v0z" />
    <glyph glyph-name="uniE968" unicode="&#xe968;" 
d="M853 725h-362l-73 111q-6 7 -15 12t-19 5h-213q-55 0 -91.5 -36.5t-36.5 -91.5v-597q0 -54 36.5 -91t91.5 -37h682q55 0 91.5 37t36.5 91v469q0 55 -36.5 91.5t-91.5 36.5v0zM896 128q0 -19 -11.5 -31t-31.5 -12h-682q-20 0 -31.5 12t-11.5 31v597q0 20 11.5 31.5
t31.5 11.5h192l72 -111q7 -6 16 -11.5t18 -5.5h384q20 0 31.5 -11.5t11.5 -31.5v-469v0z" />
    <glyph glyph-name="uniE969" unicode="&#xe969;" 
d="M853 725h-362l-73 111q-6 7 -15 12t-19 5h-213q-55 0 -91.5 -36.5t-36.5 -91.5v-597q0 -54 36.5 -91t91.5 -37h682q55 0 91.5 37t36.5 91v469q0 55 -36.5 91.5t-91.5 36.5v0zM896 128q0 -19 -11.5 -31t-31.5 -12h-682q-20 0 -31.5 12t-11.5 31v597q0 20 11.5 31.5
t31.5 11.5h192l72 -111q7 -6 16 -11.5t18 -5.5h384q20 0 31.5 -11.5t11.5 -31.5v-469v0zM640 384h-256q-19 0 -31 -11.5t-12 -31.5q0 -19 12 -30.5t31 -11.5h256q19 0 31 11.5t12 30.5q0 20 -12 31.5t-31 11.5z" />
    <glyph glyph-name="uniE96A" unicode="&#xe96a;" 
d="M853 725h-362l-73 111q-6 7 -15 12t-19 5h-213q-55 0 -91.5 -36.5t-36.5 -91.5v-597q0 -54 36.5 -91t91.5 -37h682q55 0 91.5 37t36.5 91v469q0 55 -36.5 91.5t-91.5 36.5v0zM896 128q0 -19 -11.5 -31t-31.5 -12h-682q-20 0 -31.5 12t-11.5 31v597q0 20 11.5 31.5
t31.5 11.5h192l72 -111q7 -6 16 -11.5t18 -5.5h384q20 0 31.5 -11.5t11.5 -31.5v-469v0zM640 384h-85v85q0 20 -12 31.5t-31 11.5t-31 -11.5t-12 -31.5v-85h-85q-19 0 -31 -11.5t-12 -31.5q0 -19 12 -30.5t31 -11.5h85v-86q0 -19 12 -30.5t31 -11.5t31 11.5t12 30.5v86h85
q19 0 31 11.5t12 30.5q0 20 -12 31.5t-31 11.5z" />
    <glyph glyph-name="uniE96B" unicode="&#xe96b;" 
d="M939 683h-103q10 16 13.5 32t3.5 32q0 60 -44 104.5t-105 44.5q-74 0 -120 -42t-72 -90q-26 48 -72 90t-120 42q-61 0 -105 -44.5t-44 -104.5q0 -16 3.5 -32t13.5 -32h-103q-19 0 -30.5 -12t-11.5 -31v-213q0 -20 11.5 -31.5t30.5 -11.5h43v-384q0 -19 11.5 -31t31.5 -12
h682q20 0 31.5 12t11.5 31v384h43q19 0 30.5 11.5t11.5 31.5v213q0 19 -11.5 31t-30.5 12v0zM704 811q26 0 45 -19.5t19 -44.5q0 -26 -19 -45t-45 -19h-137q16 38 49.5 83t87.5 45zM256 747q0 25 19 44.5t45 19.5q54 0 87.5 -45t49.5 -83h-137q-26 0 -45 19t-19 45zM128 597
h341v-128h-341v128zM213 384h256v-341h-256v341v0zM811 43h-256v341h256v-341zM896 469h-341v128h341v-128z" />
    <glyph glyph-name="uniE96C" unicode="&#xe96c;" 
d="M939 683q0 70 -50.5 120t-120.5 50t-120.5 -50t-50.5 -120q0 -58 37 -104t91 -58q-6 -60 -32 -112t-66.5 -92.5t-92.5 -66.5t-112 -32q-12 44 -44.5 76.5t-74.5 42.5v474q0 19 -12 30.5t-31 11.5t-33 -11.5t-14 -30.5v-474q-54 -13 -91 -59.5t-37 -106.5q0 -71 50.5 -121
t120.5 -50q61 0 105.5 37t60.5 91q77 6 145 39t120 85t85 120q32 67 39 144q54 16 91 61t37 106v0zM256 85q-35 0 -60 25t-25 61q0 35 25 60t60 25t60 -25t25 -60q0 -36 -25 -61t-60 -25v0zM768 597q-35 0 -60 25t-25 61q0 35 25 60t60 25t60 -25t25 -60q0 -36 -25 -61
t-60 -25z" />
    <glyph glyph-name="uniE96D" unicode="&#xe96d;" 
d="M981 469h-256h-2h-2q-16 74 -74 122.5t-135 48.5t-135 -48.5t-74 -122.5h-2h-2h-256q-20 0 -31.5 -11.5t-11.5 -30.5q0 -20 11.5 -31.5t31.5 -11.5h256h2h2q16 -74 74 -122.5t135 -48.5t135 48.5t74 122.5h2h2h256q20 0 31.5 11.5t11.5 31.5q0 19 -13.5 30.5t-29.5 11.5
v0zM512 299q-54 0 -91 36.5t-37 91.5q0 54 37 91t91 37t91 -37t37 -91q0 -55 -37 -91.5t-91 -36.5z" />
    <glyph glyph-name="uniE96E" unicode="&#xe96e;" 
d="M768 341q-58 0 -103.5 -36.5t-58.5 -91.5q-59 7 -112 33q-52 26 -92.5 66t-66.5 93q-26 52 -32 111q54 16 91 60.5t37 101.5q0 71 -50 121t-121 50q-70 0 -122.5 -48t-52.5 -118q0 -61 37 -106t91 -61v-473q0 -20 12 -31.5t31 -11.5t31 11.5t12 31.5v256q27 -36 60 -65
q34 -29 72 -51t81 -36t90 -19q12 -54 58.5 -93t107.5 -39q70 0 120.5 50t50.5 120q0 71 -50.5 123t-120.5 52v0zM171 683q0 35 25 60t60 25t60 -25t25 -60q0 -36 -25 -61t-60 -25t-60 25t-25 61v0zM768 85q-35 0 -60 25t-25 61q0 35 25 60t60 25t60 -25t25 -60
q0 -36 -25 -61t-60 -25z" />
    <glyph glyph-name="uniE96F" unicode="&#xe96f;" 
d="M811 337v260q0 55 -37 91.5t-91 36.5h-128q-20 0 -31.5 -11.5t-11.5 -30.5q0 -20 11.5 -31.5t31.5 -11.5h128q19 0 30.5 -11.5t11.5 -31.5v-260q-54 -13 -91 -59.5t-37 -106.5q0 -71 50.5 -121t120.5 -50t120.5 50t50.5 121q0 60 -37 105t-91 61v0zM768 85q-35 0 -60 25
t-25 61q0 35 25 60t60 25t60 -25t25 -60q0 -36 -25 -61t-60 -25zM256 853q-70 0 -120.5 -50t-50.5 -120q0 -61 37 -106t91 -61v-473q0 -20 12 -31.5t31 -11.5t31 11.5t12 31.5v473q54 13 91 59.5t37 107.5q0 70 -50.5 120t-120.5 50zM256 597q-35 0 -60 25t-25 61
q0 35 25 60t60 25t60 -25t25 -60q0 -36 -25 -61t-60 -25v0z" />
    <glyph glyph-name="uniE970" unicode="&#xe970;" 
d="M960 576q0 48 -15.5 90t-44.5 81q10 41 6.5 84.5t-19.5 81.5q-3 10 -9.5 16t-15.5 10q-13 3 -57 -1.5t-131 -58.5q-70 16 -142 16t-139 -16q-87 54 -131 58.5t-57 1.5q-10 -4 -16.5 -10t-9.5 -16q-19 -42 -22 -83.5t9 -82.5q-28 -39 -43.5 -82.5t-15.5 -88.5
q0 -86 22 -145q21 -58 56.5 -96t79.5 -58t89 -30q-6 -22 -9.5 -41.5t-3.5 -39.5v-4q-67 -13 -97.5 8t-55.5 56q-16 23 -37.5 44.5t-56.5 28.5q-16 3 -32 -5.5t-19 -24.5q-4 -16 5 -32t25 -19q9 -4 21.5 -15.5t24.5 -27.5q29 -38 77.5 -76.5t144.5 -25.5v-73q0 -19 12 -31
t31 -12t31 12t12 31v124v2v2v38q0 23 7 42t23 35q9 10 11.5 21.5t-3.5 21.5q-3 13 -12 20t-22 10q-46 6 -90 19q-43 12 -76 40t-53 75t-20 122q0 38 13 70.5t38 61.5q10 10 11 21.5t-2 21.5q-10 28 -10.5 54.5t5.5 51.5q16 -3 44.5 -14.5t66.5 -40.5q10 -7 19.5 -7.5
t19.5 3.5q67 19 138.5 19t138.5 -19q10 -4 19 -1.5t15 5.5q42 29 70 40.5t41 14.5q7 -25 6.5 -50.5t-10.5 -51.5q-3 -13 -2 -24.5t10 -18.5q26 -25 39 -59.5t13 -72.5q0 -75 -20 -123q-20 -47 -53.5 -75t-76.5 -41q-43 -12 -89 -17q-13 0 -22 -8.5t-12 -21.5
q-4 -13 -1 -24.5t9 -18.5q16 -16 23 -37t7 -44v-166q0 -19 11.5 -31t31.5 -12q19 0 30.5 12t11.5 31v162q4 23 0.5 42.5t-12.5 38.5q38 8 81 27q44 19 80.5 56.5t61.5 97.5q24 61 24 152v0z" />
    <glyph glyph-name="uniE971" unicode="&#xe971;" 
d="M1020 380l-158 478q-3 6 -7 12.5t-10 12.5q-16 16 -40.5 16t-40.5 -16q-7 -3 -10.5 -9.5t-6.5 -15.5l-94 -291h-282l-94 291q-3 6 -6.5 12.5t-10.5 12.5q-16 16 -40.5 16t-40.5 -16q-6 -3 -10 -9.5t-7 -15.5l-158 -478q-9 -26 -0.5 -50t30.5 -40l452 -328q7 -4 13.5 -6.5
t12.5 -2.5t12.5 2.5t13.5 6.5l452 328q22 13 30.5 38.5t-0.5 51.5v0zM512 47l-427 307l133 405l81 -247q3 -13 14.5 -21.5t27.5 -8.5h342q12 0 24 8.5t18 21.5l81 247l81 -247l52 -154l-427 -311v0z" />
    <glyph glyph-name="uniE972" unicode="&#xe972;" 
d="M512 896q-98 0 -183 -37q-86 -36 -149.5 -100t-100.5 -149q-36 -86 -36 -183q0 -98 36 -183q37 -86 100.5 -149.5t149.5 -100.5q85 -37 183 -37t183 37q86 37 149.5 100.5t100.5 149.5q36 85 36 183q0 97 -36 183q-37 85 -100.5 149t-149.5 100q-85 37 -183 37zM892 469
h-171q-3 45 -12 88t-23.5 84.5t-34.5 80.5t-45 76q57 -15 107 -45q49 -31 87 -74.5t61 -96.5q24 -53 31 -113zM388 384h252q-5 -43 -15 -85t-26 -82t-36 -78q-21 -37 -47 -71q-29 34 -51 71q-22 38 -38 78t-26 82t-13 85v0zM388 469q5 44 15 86q11 42 26.5 82t36.5 77
q20 37 46 71q27 -35 49 -73q21 -38 36.5 -78t25.5 -82q10 -41 13 -83h-248v0zM414 798q-24 -37 -43 -76t-33 -80.5t-23 -84.5t-12 -88h-171q7 60 30 113q24 53 61.5 96.5t85.5 74.5q49 30 105 45v0zM132 384h171q3 -45 12 -88t23.5 -84t34.5 -81q20 -39 45 -76
q-57 15 -107 46q-49 31 -87 74t-61 96q-24 54 -31 113v0zM610 55q24 37 43 76q20 40 34 81t24 84t14 88h171q-8 -59 -33 -113q-24 -53 -62 -96t-86 -74q-49 -31 -105 -46z" />
    <glyph glyph-name="uniE973" unicode="&#xe973;" 
d="M427 853h-299q-19 0 -31 -11.5t-12 -30.5v-299q0 -19 12 -31t31 -12h299q19 0 30.5 12t11.5 31v299q0 19 -11.5 30.5t-30.5 11.5v0zM384 555h-213v213h213v-213zM896 853h-299q-19 0 -30.5 -11.5t-11.5 -30.5v-299q0 -19 11.5 -31t30.5 -12h299q19 0 31 12t12 31v299
q0 19 -12 30.5t-31 11.5v0zM853 555h-213v213h213v-213zM896 384h-299q-19 0 -30.5 -11.5t-11.5 -31.5v-298q0 -20 11.5 -31.5t30.5 -11.5h299q19 0 31 11.5t12 31.5v298q0 20 -12 31.5t-31 11.5zM853 85h-213v214h213v-214zM427 384h-299q-19 0 -31 -11.5t-12 -31.5v-298
q0 -20 12 -31.5t31 -11.5h299q19 0 30.5 11.5t11.5 31.5v298q0 20 -11.5 31.5t-30.5 11.5v0zM384 85h-213v214h213v-214z" />
    <glyph glyph-name="uniE974" unicode="&#xe974;" 
d="M977 444v0v0l-149 294q-16 32 -46.5 52.5t-68.5 20.5h-406q-35 0 -65 -19t-46 -54l-145 -294v0v0q-6 -3 -7 -7t-1 -10v-256q0 -55 36.5 -91.5t91.5 -36.5h682q55 0 91.5 36.5t36.5 91.5v256q0 6 -0.5 10t-3.5 7v0zM269 700v0v0q6 13 17.5 19t20.5 6h406q12 0 22 -6
t16 -19l115 -231h-712zM853 128h-682q-20 0 -31.5 11.5t-11.5 31.5v213h768v-213q0 -20 -11.5 -31.5t-31.5 -11.5v0zM226 286q-6 -7 -9.5 -13.5t-3.5 -16.5t3.5 -16.5t9.5 -13.5q7 -6 13.5 -9.5t16.5 -3.5t16.5 3.5t13.5 9.5q6 7 9.5 13.5t3.5 16.5t-3.5 16.5t-9.5 13.5
q-13 13 -30 13t-30 -13v0zM397 286q-7 -7 -10 -13.5t-3 -16.5t3 -16.5t10 -13.5q6 -6 13 -9.5t17 -3.5q9 0 16 3.5t14 9.5q6 7 9 15.5t3 14.5t-3 14.5t-9 15.5q-13 13 -30 13t-30 -13v0z" />
    <glyph glyph-name="uniE975" unicode="&#xe975;" 
d="M853 341h-179l17 171h162q20 0 31.5 11.5t11.5 31.5q0 19 -11.5 30.5t-31.5 11.5h-149l21 209q4 16 -7.5 30t-30.5 17q-16 4 -30 -7.5t-17 -30.5l-26 -218h-170l25 209q4 16 -7.5 30t-30.5 17q-16 4 -30 -7.5t-17 -30.5l-26 -218h-187q-20 0 -31.5 -11.5t-11.5 -30.5
q0 -20 11.5 -31.5t31.5 -11.5h179l-17 -171h-162q-20 0 -31.5 -11.5t-11.5 -30.5q0 -20 11.5 -31.5t31.5 -11.5h149l-21 -209q-4 -16 7.5 -30t30.5 -17h2h2q16 0 28 11t15 27l26 218h170l-25 -209q-4 -16 7.5 -30t30.5 -17h2h2q16 0 28 11t15 27l26 218h187q20 0 31.5 11.5
t11.5 31.5q0 19 -11.5 30.5t-31.5 11.5v0zM418 341l17 171h171l-17 -171h-171v0z" />
    <glyph glyph-name="uniE976" unicode="&#xe976;" 
d="M512 853q-88 0 -166 -33q-77 -34 -135 -92t-92 -136q-34 -77 -34 -165v-299q0 -54 37 -91t91 -37h43q54 0 91 37t37 91v128q0 54 -37 91t-91 37h-85v43q0 70 27 132t73 108.5t108 73.5q63 27 133 27t133 -27q62 -27 108 -73.5t73 -108.5t27 -132v-43h-85q-54 0 -91 -37
t-37 -91v-128q0 -54 37 -91t91 -37h43q54 0 91 37t37 91v299q0 88 -34 165q-34 78 -92 136t-135 92q-78 33 -166 33v0zM256 299q19 0 31 -12t12 -31v-128q0 -19 -12 -31t-31 -12h-43q-19 0 -30.5 12t-11.5 31v171h85v0zM853 128q0 -19 -11.5 -31t-30.5 -12h-43q-19 0 -31 12
t-12 31v128q0 19 12 31t31 12h85v-171v0z" />
    <glyph glyph-name="uniE977" unicode="&#xe977;" 
d="M917 772v0q-38 39 -87.5 60t-104.5 21v0q-54 0 -106 -21t-90 -60v0v0l-17 -17l-17 17q-38 39 -88.5 60t-107.5 21q-55 0 -104.5 -21t-87.5 -60q-39 -38 -62.5 -90t-23.5 -106t21.5 -106t59.5 -90l376 -376q6 -6 13 -9.5t17 -3.5q9 0 16 3.5t14 9.5l375 376q43 40 65 91
t22 105t-20 105q-21 51 -63 91v0zM858 439l-346 -345l-346 345q-57 58 -57 137t57 137q26 28 61.5 41.5t71.5 13.5q38 0 72.5 -13.5t63.5 -41.5l47 -47q13 -13 30 -13t30 13l43 47v0v0q28 25 63.5 40t76.5 15v0v0q39 0 73.5 -15t63.5 -40v0q25 -29 40 -64t15 -73t-15.5 -73
t-43.5 -64v0z" />
    <glyph glyph-name="uniE978" unicode="&#xe978;" 
d="M512 896q-98 0 -183 -37q-86 -36 -149.5 -100t-100.5 -149q-36 -86 -36 -183q0 -98 36 -183q37 -86 100.5 -149.5t149.5 -100.5q85 -37 183 -37t183 37q86 37 149.5 100.5t100.5 149.5q36 85 36 183q0 97 -36 183q-37 85 -100.5 149t-149.5 100q-85 37 -183 37zM512 43
q-80 0 -150 30t-122 82t-82 122t-30 150t30 150t82 122t122 82t150 30t150 -30t122 -82t82 -122t30 -150t-30 -150t-82 -122t-122 -82t-150 -30zM563 674q-67 23 -131 -7.5t-86 -94.5q-4 -19 3 -36t26 -20q16 -6 33 2t23 24q13 32 44.5 48t66.5 3q25 -10 40 -31t15 -50
q0 -32 -39.5 -56t-58.5 -34q-16 -6 -24 -21t-1 -34q3 -13 14 -21.5t24 -8.5q3 0 6.5 0.5t6.5 3.5q6 2 32 13q25 10 53 30.5t50 51.5q23 30 23 72q-4 57 -36.5 102t-83.5 64v0zM482 243q-6 -6 -9.5 -13t-3.5 -17q0 -9 3.5 -16t9.5 -14q7 -6 13.5 -9t16.5 -3t16.5 3t13.5 9
q6 7 9.5 15.5t3.5 14.5q0 7 -3.5 15.5t-9.5 14.5q-13 13 -30 13t-30 -13v0z" />
    <glyph glyph-name="uniE979" unicode="&#xe979;" 
d="M922 589l-384 298q-13 10 -27.5 10t-24.5 -10l-384 -298q-9 -7 -13 -16t-4 -18v-470q0 -54 37 -91t91 -37h598q54 0 91 37t37 91v470q0 9 -4 18t-13 16v0zM597 43h-170v341h170v-341zM853 85q0 -19 -11.5 -30.5t-30.5 -11.5h-128v384q0 19 -12 30.5t-31 11.5h-256
q-19 0 -31 -11.5t-12 -30.5v-384h-128q-19 0 -30.5 11.5t-11.5 30.5v448l341 265l341 -265v-448v0z" />
    <glyph glyph-name="uniE97A" unicode="&#xe97a;" 
d="M811 853h-598q-54 0 -91 -36.5t-37 -91.5v-597q0 -54 37 -91t91 -37h598q54 0 91 37t37 91v597q0 55 -37 91.5t-91 36.5zM171 725q0 20 11.5 31.5t30.5 11.5h598q19 0 30.5 -11.5t11.5 -31.5v-324l-140 141q-13 13 -30 13t-30 -13l-452 -452q-13 3 -21.5 14t-8.5 24v597
v0zM811 85h-495l367 367l170 -170v-154q0 -19 -11.5 -31t-30.5 -12v0zM363 469q44 0 75 31t31 76t-31 76t-75 31q-45 0 -76 -31t-31 -76t31 -76t76 -31v0zM363 597q9 0 15 -5.5t6 -15.5t-6 -15.5t-15 -5.5q-10 0 -16 5.5t-6 15.5t6 15.5t16 5.5v0z" />
    <glyph glyph-name="uniE97B" unicode="&#xe97b;" 
d="M977 444v0v0l-149 294q-16 32 -46.5 52.5t-68.5 20.5h-406q-35 0 -65 -19t-46 -54l-145 -294v0v0q-6 -3 -7 -7t-1 -10v-256q0 -55 36.5 -91.5t91.5 -36.5h682q55 0 91.5 36.5t36.5 91.5v256q0 6 -0.5 10t-3.5 7v0zM269 700v0v0q6 13 17.5 19t20.5 6h406q12 0 22 -6
t16 -19l115 -231h-183q-10 0 -19 -5t-15 -12l-73 -111h-124l-72 111q-10 7 -19.5 12t-19.5 5h-187l115 231v0zM853 128h-682q-20 0 -31.5 11.5t-11.5 31.5v213h192l73 -111q6 -6 15 -11.5t19 -5.5h170q10 0 19 5.5t15 11.5l73 111h192v-213q0 -20 -11.5 -31.5t-31.5 -11.5v0
z" />
    <glyph glyph-name="uniE97C" unicode="&#xe97c;" 
d="M512 896q-98 0 -183 -37q-86 -36 -149.5 -100t-100.5 -149q-36 -86 -36 -183q0 -98 36 -183q37 -86 100.5 -149.5t149.5 -100.5q85 -37 183 -37t183 37q86 37 149.5 100.5t100.5 149.5q36 85 36 183q0 97 -36 183q-37 85 -100.5 149t-149.5 100q-85 37 -183 37zM512 43
q-80 0 -150 30t-122 82t-82 122t-30 150t30 150t82 122t122 82t150 30t150 -30t122 -82t82 -122t30 -150t-30 -150t-82 -122t-122 -82t-150 -30zM512 469q-19 0 -31 -11.5t-12 -30.5v-171q0 -19 12 -31t31 -12t31 12t12 31v171q0 19 -12 30.5t-31 11.5v0zM482 627
q-6 -6 -9.5 -13t-3.5 -17q0 -9 3.5 -16t9.5 -14q7 -6 13.5 -9t16.5 -3t16.5 3t13.5 9q6 7 9.5 14t3.5 16q0 10 -3.5 17t-9.5 13q-13 13 -30 13t-30 -13v0z" />
    <glyph glyph-name="uniE97D" unicode="&#xe97d;" 
d="M725 896h-426q-53 0 -100 -20q-46 -20 -81 -55t-55 -82q-20 -46 -20 -99v-427q0 -52 20 -99t55 -81.5t81 -54.5q47 -21 100 -21h426q53 0 100 21q46 20 81 54.5t55 81.5t20 99v427q0 53 -20 99q-20 47 -55 82t-81 55q-47 20 -100 20v0zM896 213q0 -70 -50 -120t-121 -50
h-426q-71 0 -121 50t-50 120v427q0 70 50 120.5t121 50.5h426q71 0 121 -50.5t50 -120.5v-427zM546 640q-16 3 -32 3t-32 -3q-43 -6 -79 -29t-60 -56t-35 -74t-5 -84q6 -42 28 -78.5t57 -62.5q29 -19 61 -31t67 -12q7 0 15.5 0.5t14.5 4.5q42 6 78.5 28t62.5 57t35.5 75.5
t2.5 82.5q-9 70 -58.5 119.5t-120.5 59.5zM619 354q-16 -19 -38 -33.5t-48 -17.5q-51 -6 -94.5 24.5t-50.5 82.5q-9 51 23.5 94.5t83.5 50.5h8.5h8.5h8.5h8.5q42 -7 71 -36t36 -71q6 -26 0.5 -50.5t-17.5 -43.5v0zM717 691q-7 -6 -10 -13t-3 -17q0 -9 3 -16t10 -14
q6 -6 14.5 -9t15.5 -3q9 0 16 3t14 9q6 7 9 15.5t3 14.5q0 10 -3 17t-9 13q-13 13 -30 13t-30 -13v0z" />
    <glyph glyph-name="uniE97E" unicode="&#xe97e;" 
d="M811 811h-384q-20 0 -31.5 -12t-11.5 -31t11.5 -31t31.5 -12h153l-226 -597h-141q-19 0 -30.5 -11.5t-11.5 -31.5q0 -19 11.5 -30.5t30.5 -11.5h384q20 0 31.5 11.5t11.5 30.5q0 20 -11.5 31.5t-31.5 11.5h-153l222 597h145q19 0 30.5 12t11.5 31t-11.5 31t-30.5 12v0z
" />
    <glyph glyph-name="uniE97F" unicode="&#xe97f;" 
d="M68 602l427 -214q3 -3 7 -3.5t10 -0.5t10 0.5t7 3.5l427 214q13 6 19 15.5t6 22.5t-6 22.5t-19 15.5l-427 214q-10 3 -19.5 3t-18.5 -3l-427 -214q-10 -6 -15.5 -15.5t-5.5 -22.5t6 -22.5t19 -15.5v0zM512 806l333 -166l-333 -166l-333 166l333 166v0zM922 252l-410 -205
l-410 205q-16 6 -32.5 0.5t-22.5 -17.5q-6 -13 -1 -31t18 -25l427 -213q6 -7 10.5 -8t10.5 -1t10 0.5t7 4.5l427 213q16 6 21 22.5t-4 32.5q-7 16 -23 22t-28 0v0zM922 465l-410 -205l-410 205q-16 6 -32.5 1t-22.5 -18q-6 -16 -1 -32.5t18 -22.5l427 -214q6 -6 10.5 -7
t10.5 -1t10 0.5t7 3.5l427 213q16 7 21 23.5t-4 32.5q-7 16 -23 21.5t-28 -0.5v0z" />
    <glyph glyph-name="uniE980" unicode="&#xe980;" 
d="M811 853h-598q-54 0 -91 -36.5t-37 -91.5v-597q0 -54 37 -91t91 -37h598q54 0 91 37t37 91v597q0 55 -37 91.5t-91 36.5zM213 768h598q19 0 30.5 -11.5t11.5 -31.5v-128h-682v128q0 20 11.5 31.5t30.5 11.5v0zM171 128v384h170v-427h-128q-19 0 -30.5 12t-11.5 31z
M811 85h-384v427h426v-384q0 -19 -11.5 -31t-30.5 -12z" />
    <glyph glyph-name="uniE981" unicode="&#xe981;" 
d="M845 94q32 32 57 69q25 38 43 80t27 88t9 96q0 48 -9 94t-27 88t-43 80t-57 70v0v0v0v0q-32 32 -70 58q-38 25 -80.5 42.5t-88.5 27.5q-46 9 -94 9t-94 -9q-46 -10 -88.5 -27.5t-80.5 -42.5q-38 -26 -70 -58v0v0v0v0q-32 -32 -57 -70t-43 -80t-27 -88t-9 -94t9 -94
t27 -88.5t43 -80.5t57 -70v0v0v0v0q32 -32 70 -57q37 -26 79 -43.5t88 -26.5q46 -10 96 -10q48 0 94 10q46 9 88.5 26.5t80.5 43.5q38 25 70 57v0v0v0v0zM811 188l-124 123q19 23 28.5 53.5t9.5 62.5t-9 63t-25 56l120 120q38 -48 61.5 -110t23.5 -129q0 -68 -22 -129.5
t-63 -109.5v0zM384 427q0 54 37 91t91 37t91 -37t37 -91q0 -55 -37 -91.5t-91 -36.5t-91 36.5t-37 91.5zM751 725l-124 -123q-22 19 -52.5 28.5t-62.5 9.5t-63 -9t-56 -25l-120 119q48 42 110 64t129 22t129 -22t110 -64v0zM213 666l124 -124q-19 -23 -28.5 -53t-9.5 -62
t9 -63t25 -57l-120 -119q-38 48 -61.5 109.5t-23.5 129.5q0 67 22 129t63 110v0zM273 128l124 124q22 -19 52.5 -29t62.5 -10t63 9t56 25l124 -123q-48 -39 -110 -62.5t-129 -23.5q-70 4 -132.5 26t-110.5 64v0z" />
    <glyph glyph-name="uniE982" unicode="&#xe982;" 
d="M900 819q-37 37 -83 55q-46 19 -94 19t-94 -19q-46 -18 -83 -55l-77 -72q-12 -13 -12 -30t12 -30q13 -13 30 -13t30 13l73 72q51 48 119 48t120 -48q51 -48 51.5 -119t-47.5 -119l-128 -128q-3 -4 -8.5 -9t-8.5 -9q-58 -41 -128 -32t-111 67q-10 12 -28.5 15t-31.5 -7
q-13 -9 -15.5 -28t7.5 -32q38 -51 92.5 -76.5t111.5 -25.5q39 0 79 13t75 38q6 7 13 13t17 13l128 128q37 37 54 84q18 47 17 96.5t-21 95.5q-20 47 -59 82v0zM491 166l-73 -72q-51 -48 -119.5 -48t-119.5 48t-51.5 119.5t47.5 119.5l128 128l8.5 8.5l8.5 8.5q29 19 61 28
t67 6q35 -6 63.5 -22.5t47.5 -45.5q10 -13 28.5 -15.5t31.5 6.5q12 10 15 28.5t-7 31.5q-32 42 -75 67t-91 31q-48 10 -97 -2.5t-91 -44.5l-12.5 -12.5t-13.5 -12.5l-128 -128q-36 -39 -54 -87q-18 -47 -17 -96.5t20 -95.5q19 -47 56 -84q38 -35 84.5 -54t94.5 -19t94.5 19
t84.5 54l73 72q12 13 12 30t-12 30q-13 13 -32.5 15t-31.5 -11v0z" />
    <glyph glyph-name="uniE983" unicode="&#xe983;" 
d="M384 256h-128q-70 0 -120.5 50t-50.5 121q0 70 50.5 120t120.5 50h128q19 0 31 12t12 31t-12 31t-31 12h-128q-53 0 -99 -21q-47 -20 -82 -54.5t-55 -81.5t-20 -99q0 -53 20 -100q20 -46 55 -81t82 -55q46 -20 99 -20h128q19 0 31 11.5t12 30.5q0 20 -12 31.5t-31 11.5v0
zM768 683h-128q-19 0 -31 -12t-12 -31t12 -31t31 -12h128q70 0 120.5 -50t50.5 -120q0 -71 -50.5 -121t-120.5 -50h-128q-19 0 -31 -11.5t-12 -31.5q0 -19 12 -30.5t31 -11.5h128q53 0 99 20q47 20 82 55t55 81q20 47 20 100q0 52 -20 99t-55 81.5t-82 54.5q-46 21 -99 21v0
zM299 427q0 -20 11.5 -31.5t30.5 -11.5h342q19 0 30.5 11.5t11.5 31.5q0 19 -11.5 30.5t-30.5 11.5h-342q-19 0 -30.5 -11.5t-11.5 -30.5v0z" />
    <glyph glyph-name="uniE984" unicode="&#xe984;" 
d="M683 640q-63 0 -117 -23q-55 -24 -95 -64t-64 -95q-23 -54 -23 -117v-298q0 -20 11.5 -31.5t31.5 -11.5h170q20 0 31.5 11.5t11.5 31.5v298q0 20 11.5 31.5t31.5 11.5q19 0 30.5 -11.5t11.5 -31.5v-298q0 -20 12 -31.5t31 -11.5h171q19 0 30.5 11.5t11.5 31.5v298
q0 63 -23 117q-23 55 -63.5 95t-94.5 64q-55 23 -117 23v0zM896 85h-85v256q0 55 -37 91.5t-91 36.5q-55 0 -91.5 -36.5t-36.5 -91.5v-256h-86v256q0 45 17 84q16 39 45 68t68 45q39 17 84 17q44 0 83 -17q39 -16 68 -45t45 -68q17 -39 17 -84v-256zM256 597h-171
q-19 0 -30.5 -11.5t-11.5 -30.5v-512q0 -20 11.5 -31.5t30.5 -11.5h171q19 0 31 11.5t12 31.5v512q0 19 -12 30.5t-31 11.5zM213 85h-85v427h85v-427zM171 896q-55 0 -91.5 -37t-36.5 -91t36.5 -91t91.5 -37q54 0 91 37t37 91t-37 91t-91 37v0zM171 725q-20 0 -31.5 12
t-11.5 31t11.5 31t31.5 12q19 0 30.5 -12t11.5 -31t-11.5 -31t-30.5 -12z" />
    <glyph glyph-name="uniE985" unicode="&#xe985;" 
d="M341 640h555q19 0 31 11.5t12 31.5q0 19 -12 30.5t-31 11.5h-555q-19 0 -30.5 -11.5t-11.5 -30.5q0 -20 11.5 -31.5t30.5 -11.5v0zM896 469h-555q-19 0 -30.5 -11.5t-11.5 -30.5q0 -20 11.5 -31.5t30.5 -11.5h555q19 0 31 11.5t12 31.5q0 19 -12 30.5t-31 11.5v0z
M896 213h-555q-19 0 -30.5 -11.5t-11.5 -30.5q0 -20 11.5 -31.5t30.5 -11.5h555q19 0 31 11.5t12 31.5q0 19 -12 30.5t-31 11.5zM98 713q-6 -7 -9.5 -14t-3.5 -16q0 -10 3.5 -17t9.5 -13q7 -7 13.5 -10t16.5 -3t16.5 3t13.5 10q6 6 9.5 13t3.5 17q0 9 -3.5 16t-9.5 14
q-13 12 -30 12t-30 -12v0zM98 457q-6 -7 -9.5 -14t-3.5 -16q0 -10 3.5 -17t9.5 -13q7 -7 13.5 -10t16.5 -3t16.5 3t13.5 10q6 6 9.5 13t3.5 17q0 9 -3.5 16t-9.5 14q-13 12 -30 12t-30 -12v0zM98 201q-6 -7 -9.5 -14t-3.5 -16q0 -10 3.5 -17t9.5 -13q7 -7 13.5 -10t16.5 -3
t16.5 3t13.5 10q6 6 9.5 13t3.5 17q0 9 -3.5 16t-9.5 14q-13 12 -30 12t-30 -12v0z" />
    <glyph glyph-name="uniE986" unicode="&#xe986;" 
d="M512 896q-19 0 -31 -11.5t-12 -31.5v-170q0 -20 12 -31.5t31 -11.5t31 11.5t12 31.5v170q0 20 -12 31.5t-31 11.5zM512 213q-19 0 -31 -11.5t-12 -30.5v-171q0 -19 12 -31t31 -12t31 12t12 31v171q0 19 -12 30.5t-31 11.5zM239 759q-13 13 -30 13t-30 -13
q-13 -12 -13 -29t13 -30l120 -120q6 -6 14.5 -9.5t15.5 -3.5q6 0 14.5 3.5t14.5 9.5q13 13 13 30t-13 30l-119 119v0zM721 277q-13 13 -30 13t-30 -13q-12 -12 -12 -29.5t12 -29.5l120 -120q6 -6 14.5 -9.5t15.5 -3.5q6 0 14.5 3.5t15.5 9.5q12 13 12 30t-12 30l-120 119v0z
M299 427q0 19 -12 30.5t-31 11.5h-171q-19 0 -30.5 -11.5t-11.5 -30.5q0 -20 11.5 -31.5t30.5 -11.5h171q19 0 31 11.5t12 31.5zM939 469h-171q-19 0 -31 -11.5t-12 -30.5q0 -20 12 -31.5t31 -11.5h171q19 0 30.5 11.5t11.5 31.5q0 19 -11.5 30.5t-30.5 11.5v0zM303 277
l-120 -119q-12 -13 -12 -30t12 -30q7 -6 15.5 -9.5t14.5 -3.5q7 0 15.5 3.5t14.5 9.5l120 120q12 12 12 29.5t-12 29.5q-13 13 -31.5 13t-28.5 -13v0zM691 563q10 0 17 3.5t13 9.5l120 119q12 13 12 30t-12 30q-13 13 -30 13t-30 -13l-120 -119q-12 -13 -12 -30t12 -30
q7 -6 15.5 -9.5t14.5 -3.5v0z" />
    <glyph glyph-name="uniE987" unicode="&#xe987;" 
d="M811 512h-43v128q0 53 -20 99q-20 47 -55 82t-82 55q-46 20 -99 20t-99 -20q-47 -20 -82 -55t-55 -82q-20 -46 -20 -99v-128h-43q-54 0 -91 -37t-37 -91v-299q0 -54 37 -91t91 -37h598q54 0 91 37t37 91v299q0 54 -37 91t-91 37v0zM341 640q0 70 50.5 120.5t120.5 50.5
t120.5 -50.5t50.5 -120.5v-128h-342v128v0zM853 85q0 -19 -11.5 -30.5t-30.5 -11.5h-598q-19 0 -30.5 11.5t-11.5 30.5v299q0 19 11.5 31t30.5 12h598q19 0 30.5 -12t11.5 -31v-299v0z" />
    <glyph glyph-name="uniE988" unicode="&#xe988;" 
d="M811 853h-171q-19 0 -31 -11.5t-12 -30.5q0 -20 12 -31.5t31 -11.5h171q19 0 30.5 -11.5t11.5 -31.5v-597q0 -19 -11.5 -31t-30.5 -12h-171q-19 0 -31 -11.5t-12 -30.5q0 -20 12 -31.5t31 -11.5h171q54 0 91 37t37 91v597q0 55 -37 91.5t-91 36.5v0zM678 410q4 6 4 15
t-4 19q-3 3 -4 6t-4 7l-213 213q-13 13 -30 13t-30 -13t-13 -30t13 -30l141 -141h-410q-19 0 -31 -11.5t-12 -30.5q0 -20 12 -31.5t31 -11.5h410l-141 -141q-13 -13 -13 -30t13 -30q6 -6 13 -9t17 -3q9 0 16 3t14 9l213 214q3 3 5.5 6t2.5 7v0z" />
    <glyph glyph-name="uniE989" unicode="&#xe989;" 
d="M384 85h-171q-19 0 -30.5 12t-11.5 31v597q0 20 11.5 31.5t30.5 11.5h171q19 0 31 11.5t12 31.5q0 19 -12 30.5t-31 11.5h-171q-54 0 -91 -36.5t-37 -91.5v-597q0 -54 37 -91t91 -37h171q19 0 31 11.5t12 31.5q0 19 -12 30.5t-31 11.5v0zM934 410q4 6 4 15t-4 19
q-3 3 -4 6t-4 7l-213 213q-13 13 -30 13t-30 -13t-13 -30t13 -30l141 -141h-410q-19 0 -31 -11.5t-12 -30.5q0 -20 12 -31.5t31 -11.5h410l-141 -141q-13 -13 -13 -30t13 -30q6 -6 14.5 -9t15.5 -3q6 0 14.5 3t15.5 9l213 214q3 3 5.5 6t2.5 7v0z" />
    <glyph glyph-name="uniE98A" unicode="&#xe98a;" 
d="M853 811h-682q-55 0 -91.5 -37t-36.5 -91v-512q0 -55 36.5 -91.5t91.5 -36.5h682q55 0 91.5 36.5t36.5 91.5v512q0 54 -36.5 91t-91.5 37zM171 725h682q13 0 22.5 -6t16.5 -19l-380 -265l-380 265q7 13 16.5 19t22.5 6v0zM853 128h-682q-20 0 -31.5 11.5t-11.5 31.5v431
l358 -252q7 -3 13.5 -6t12.5 -3t12.5 3t13.5 6l358 252v-431q0 -20 -11.5 -31.5t-31.5 -11.5v0z" />
    <glyph glyph-name="uniE98B" unicode="&#xe98b;" 
d="M1003 892q-10 6 -21.5 6t-21.5 -6l-277 -162l-325 162v0v0h-0.5h-3.5q-3 3 -6 3.5t-7 0.5v0v0v0v0q-3 0 -6.5 -0.5t-10.5 -3.5h-0.5h-3.5h-2h-2l-299 -171q-6 -6 -11.5 -16t-5.5 -22v-683q0 -13 6 -22.5t15 -15.5q10 -7 21.5 -7t21.5 7l277 162l320 -162v0v0
q7 -4 11 -4.5t11 -0.5q3 0 6 0.5t6 4.5h2.5h2.5h0.5h3.5l299 170q9 7 15 16.5t6 22.5v682q0 13 -6 22.5t-15 16.5v0zM384 785l256 -128v-589l-256 128v589zM85 657l214 124v-585l-214 -123v584zM939 196l-214 -123v584l214 124v-585v0z" />
    <glyph glyph-name="uniE98C" unicode="&#xe98c;" 
d="M512 939q-88 0 -166 -34q-77 -34 -135 -92t-92 -135q-34 -78 -34 -166q0 -118 61 -224t135 -186t137 -128l68 -51q7 -3 13.5 -5.5t12.5 -2.5t12.5 2.5t13.5 5.5l68 51q63 48 137 128t135 186t61 224q0 88 -34 166q-34 77 -92 135t-135 92q-78 34 -166 34v0zM512 9
q-30 22 -88 71q-57 49 -113 116t-98 149q-42 81 -42 167q0 70 27 133q27 62 73 108t108 73q63 27 133 27t133 -27q62 -27 108 -73t73 -108q27 -63 27 -133q0 -86 -42 -167q-42 -82 -98 -149t-113 -116q-58 -49 -88 -71zM512 683q-70 0 -120.5 -50.5t-50.5 -120.5
t50.5 -120.5t120.5 -50.5t120.5 50.5t50.5 120.5t-50.5 120.5t-120.5 50.5zM512 427q-35 0 -60 25t-25 60t25 60t60 25t60 -25t25 -60t-25 -60t-60 -25z" />
    <glyph glyph-name="uniE98D" unicode="&#xe98d;" 
d="M341 85h-128q-19 0 -30.5 12t-11.5 31v128q0 19 -12 31t-31 12t-31 -12t-12 -31v-128q0 -54 37 -91t91 -37h128q20 0 31.5 11.5t11.5 31.5q0 19 -11.5 30.5t-31.5 11.5v0zM341 853h-128q-54 0 -91 -36.5t-37 -91.5v-128q0 -19 12 -30.5t31 -11.5t31 11.5t12 30.5v128
q0 20 11.5 31.5t30.5 11.5h128q20 0 31.5 11.5t11.5 31.5q0 19 -11.5 30.5t-31.5 11.5v0zM811 853h-128q-20 0 -31.5 -11.5t-11.5 -30.5q0 -20 11.5 -31.5t31.5 -11.5h128q19 0 30.5 -11.5t11.5 -31.5v-128q0 -19 12 -30.5t31 -11.5t31 11.5t12 30.5v128q0 55 -37 91.5
t-91 36.5v0zM896 299q-19 0 -31 -12t-12 -31v-128q0 -19 -11.5 -31t-30.5 -12h-128q-20 0 -31.5 -11.5t-11.5 -30.5q0 -20 11.5 -31.5t31.5 -11.5h128q54 0 91 37t37 91v128q0 19 -12 31t-31 12v0z" />
    <glyph glyph-name="uniE98E" unicode="&#xe98e;" 
d="M934 828q-3 6 -9 12t-12 9q-3 3 -8.5 3.5t-8.5 0.5h-256q-19 0 -31 -11.5t-12 -30.5q0 -20 12 -31.5t31 -11.5h154l-227 -226q-12 -13 -12 -30t12 -30q7 -6 15.5 -9.5t14.5 -3.5q7 0 15.5 3.5t14.5 9.5l226 226v-153q0 -20 12 -31.5t31 -11.5t31 11.5t12 31.5v256
q0 3 -0.5 8.5t-4.5 8.5v0zM397 371l-226 -226v154q0 19 -12 30.5t-31 11.5t-31 -11.5t-12 -30.5v-256q0 -4 0.5 -9t4.5 -8q3 -7 9 -13t12 -9q3 -3 8.5 -3.5t8.5 -0.5h256q19 0 31 11.5t12 31.5q0 19 -12 30.5t-31 11.5h-154l227 226q12 13 12 30t-12 30q-13 13 -30 13
t-30 -13z" />
    <glyph glyph-name="uniE98F" unicode="&#xe98f;" 
d="M896 469h-768q-19 0 -31 -11.5t-12 -30.5q0 -20 12 -31.5t31 -11.5h768q19 0 31 11.5t12 31.5q0 19 -12 30.5t-31 11.5v0zM128 640h768q19 0 31 11.5t12 31.5q0 19 -12 30.5t-31 11.5h-768q-19 0 -31 -11.5t-12 -30.5q0 -20 12 -31.5t31 -11.5zM896 213h-768
q-19 0 -31 -11.5t-12 -30.5q0 -20 12 -31.5t31 -11.5h768q19 0 31 11.5t12 31.5q0 19 -12 30.5t-31 11.5z" />
    <glyph glyph-name="uniE990" unicode="&#xe990;" 
d="M939 474q-5 76 -36 144q-32 68 -83 119t-119 82t-146 34h-22v0v0q-48 0 -92.5 -10t-86.5 -32q-53 -26 -95 -64t-71 -85.5t-44 -101.5q-16 -54 -16 -112q0 -42 9 -85t25 -81l-77 -227q-3 -12 -0.5 -24t9.5 -18q9 -7 16.5 -10t17.5 -3q3 0 6.5 0.5t6.5 3.5l226 77
q38 -16 80 -25t86 -9q58 0 112 15q54 16 101.5 44.5t85.5 70.5q38 41 64 92q22 41 32.5 88t10.5 95v22v0zM853 448v0v0q0 -38 -9 -74t-25 -71q-21 -42 -50 -74q-30 -33 -67 -55.5t-80 -33.5q-42 -12 -89 -12q-38 0 -73 9t-67 25q-7 3 -16 3.5t-19 0.5l-162 -55l56 162
q3 10 2.5 17.5t-7.5 16.5q-16 32 -25 69t-9 72q0 46 13 89q12 43 35.5 79.5t56.5 66.5t75 51q32 16 68.5 25t71.5 9v0v0h17q61 -3 114 -27q53 -25 93.5 -65t65.5 -93q26 -53 30 -114v-21v0z" />
    <glyph glyph-name="uniE991" unicode="&#xe991;" 
d="M811 853h-598q-54 0 -91 -36.5t-37 -91.5v-682q0 -13 6.5 -24.5t19.5 -14.5q3 -3 8.5 -3.5t8.5 -0.5q10 0 16.5 3t13.5 10l158 158h495q54 0 91 36.5t37 91.5v426q0 55 -37 91.5t-91 36.5v0zM853 299q0 -20 -11.5 -31.5t-30.5 -11.5h-512q-10 0 -17 -3t-13 -10l-98 -98
v580q0 20 11.5 31.5t30.5 11.5h598q19 0 30.5 -11.5t11.5 -31.5v-426z" />
    <glyph glyph-name="uniE992" unicode="&#xe992;" 
d="M512 256q70 0 120.5 50t50.5 121v341q0 70 -50.5 120.5t-120.5 50.5t-120.5 -50.5t-50.5 -120.5v-341q0 -71 50.5 -121t120.5 -50zM427 768q0 35 25 60t60 25t60 -25t25 -60v-341q0 -36 -25 -61t-60 -25t-60 25t-25 61v341v0zM811 555q-20 0 -31.5 -12t-11.5 -31v-85
q0 -53 -20 -100q-20 -46 -55 -81t-82 -55q-46 -20 -99 -20t-99 20q-47 20 -82 55t-55 81q-20 47 -20 100v85q0 19 -11.5 31t-31.5 12q-19 0 -30.5 -12t-11.5 -31v-85q0 -66 23 -124t63.5 -102.5t94.5 -73.5q55 -29 117 -37v-90h-128q-19 0 -30.5 -11.5t-11.5 -31.5
q0 -19 11.5 -30.5t30.5 -11.5h342q19 0 30.5 11.5t11.5 30.5q0 20 -11.5 31.5t-30.5 11.5h-128v90q62 8 117 37q54 30 94.5 75t63.5 103t23 122v85q0 19 -11.5 31t-30.5 12v0z" />
    <glyph glyph-name="uniE993" unicode="&#xe993;" 
d="M1011 -13l-252 252q0 3 -2 4t-2 4l-2 2.5l-2 2.5l-337 333v0v0l-341 341q-13 13 -30 13t-30 -13t-13 -30t13 -30l328 -328v-111q0 -36 13 -66.5t39 -53.5q22 -25 53 -38t66 -13v0v0q22 0 44 6.5t41 19.5l64 -64q-32 -23 -67 -35t-73 -12h-5h-4h-4h-5q-48 0 -91.5 18.5
t-78.5 53.5q-39 35 -58 83.5t-19 100.5v85q0 19 -11.5 31t-31.5 12q-19 0 -30.5 -12t-11.5 -31v-85q0 -71 27 -135.5t75 -112.5q42 -41 92 -64t104 -30v-85h-128q-19 0 -30.5 -11.5t-11.5 -31.5q0 -19 11.5 -30.5t30.5 -11.5h342q19 0 30.5 11.5t11.5 30.5q0 20 -11.5 31.5
t-30.5 11.5h-128v85q44 7 87.5 23.5t78.5 45.5l230 -231q7 -6 15.5 -9.5t14.5 -3.5q7 0 15.5 3.5t14.5 9.5q13 16 13 33.5t-13 30.5v0zM512 341v0v0q-16 0 -31.5 6.5t-28.5 19.5t-19 28.5t-6 31.5v25l106 -106q-6 -4 -10.5 -4.5t-10.5 -0.5v0zM380 751q16 -3 29.5 7.5
t17.5 26.5q6 29 29.5 48.5t55.5 19.5v0v0q16 0 31.5 -6t28.5 -19t19 -28.5t6 -31.5v-226q0 -19 12 -31t31 -12t31 12t12 31v226q0 35 -13 66t-39 53q-22 26 -53 39t-66 13v0v0q-61 0 -107.5 -38t-58.5 -99q-4 -16 5.5 -32t28.5 -19v0zM798 333h4h4q16 0 28 9t15 25t3.5 30
t0.5 30v85q0 19 -11.5 31t-30.5 12q-20 0 -31.5 -12t-11.5 -31v-85q0 -13 -0.5 -23.5t-3.5 -23.5q-3 -16 7.5 -30t26.5 -17v0z" />
    <glyph glyph-name="uniE994" unicode="&#xe994;" 
d="M256 299h-128q-19 0 -31 -12t-12 -31t12 -31t31 -12h128q19 0 31 -11.5t12 -30.5v-128q0 -20 11.5 -31.5t30.5 -11.5q20 0 31.5 11.5t11.5 31.5v128q0 54 -37 91t-91 37v0zM768 555h128q19 0 31 11.5t12 30.5q0 20 -12 31.5t-31 11.5h-128q-19 0 -31 11.5t-12 31.5v128
q0 19 -11.5 30.5t-30.5 11.5q-20 0 -31.5 -11.5t-11.5 -30.5v-128q0 -55 37 -91.5t91 -36.5v0zM896 299h-128q-54 0 -91 -37t-37 -91v-128q0 -20 11.5 -31.5t31.5 -11.5q19 0 30.5 11.5t11.5 31.5v128q0 19 12 30.5t31 11.5h128q19 0 31 12t12 31t-12 31t-31 12v0zM341 853
q-19 0 -30.5 -11.5t-11.5 -30.5v-128q0 -20 -12 -31.5t-31 -11.5h-128q-19 0 -31 -11.5t-12 -31.5q0 -19 12 -30.5t31 -11.5h128q54 0 91 36.5t37 91.5v128q0 19 -11.5 30.5t-31.5 11.5v0z" />
    <glyph glyph-name="uniE995" unicode="&#xe995;" 
d="M444 380q-3 3 -8.5 3.5t-8.5 0.5h-256q-20 0 -31.5 -11.5t-11.5 -31.5q0 -19 11.5 -30.5t31.5 -11.5h153l-226 -226q-13 -13 -13 -30t13 -30q7 -7 13.5 -10t16.5 -3t16.5 3t13.5 10l226 226v-154q0 -19 11.5 -30.5t31.5 -11.5q19 0 30.5 11.5t11.5 30.5v256q0 4 -0.5 9
t-3.5 8q-3 7 -9 13t-12 9v0zM926 841q-13 12 -30 12t-30 -12l-226 -227v154q0 19 -11.5 31t-31.5 12q-19 0 -30.5 -12t-11.5 -31v-256q0 -3 0.5 -8.5t3.5 -8.5q3 -6 9 -12t12 -9q3 -4 8.5 -4.5t8.5 -0.5h256q20 0 31.5 12t11.5 31t-11.5 31t-31.5 12h-153l226 226
q13 13 13 30t-13 30z" />
    <glyph glyph-name="uniE996" unicode="&#xe996;" 
d="M811 469h-598q-19 0 -30.5 -11.5t-11.5 -30.5q0 -20 11.5 -31.5t30.5 -11.5h598q19 0 30.5 11.5t11.5 31.5q0 19 -11.5 30.5t-30.5 11.5v0z" />
    <glyph glyph-name="uniE997" unicode="&#xe997;" 
d="M512 896q-98 0 -183 -37q-86 -36 -149.5 -100t-100.5 -149q-36 -86 -36 -183q0 -98 36 -183q37 -86 100.5 -149.5t149.5 -100.5q85 -37 183 -37t183 37q86 37 149.5 100.5t100.5 149.5q36 85 36 183q0 97 -36 183q-37 85 -100.5 149t-149.5 100q-85 37 -183 37zM512 43
q-80 0 -150 30t-122 82t-82 122t-30 150t30 150t82 122t122 82t150 30t150 -30t122 -82t82 -122t30 -150t-30 -150t-82 -122t-122 -82t-150 -30zM683 469h-342q-19 0 -30.5 -11.5t-11.5 -30.5q0 -20 11.5 -31.5t30.5 -11.5h342q19 0 30.5 11.5t11.5 31.5q0 19 -11.5 30.5
t-30.5 11.5v0z" />
    <glyph glyph-name="uniE998" unicode="&#xe998;" 
d="M811 853h-598q-54 0 -91 -36.5t-37 -91.5v-597q0 -54 37 -91t91 -37h598q54 0 91 37t37 91v597q0 55 -37 91.5t-91 36.5zM853 128q0 -19 -11.5 -31t-30.5 -12h-598q-19 0 -30.5 12t-11.5 31v597q0 20 11.5 31.5t30.5 11.5h598q19 0 30.5 -11.5t11.5 -31.5v-597zM683 469
h-342q-19 0 -30.5 -11.5t-11.5 -30.5q0 -20 11.5 -31.5t30.5 -11.5h342q19 0 30.5 11.5t11.5 31.5q0 19 -11.5 30.5t-30.5 11.5v0z" />
    <glyph glyph-name="uniE999" unicode="&#xe999;" 
d="M853 853h-682q-55 0 -91.5 -36.5t-36.5 -91.5v-426q0 -55 36.5 -91.5t91.5 -36.5h298v-86h-128q-19 0 -30.5 -11.5t-11.5 -30.5q0 -20 11.5 -31.5t30.5 -11.5h342q19 0 30.5 11.5t11.5 31.5q0 19 -11.5 30.5t-30.5 11.5h-128v86h298q55 0 91.5 36.5t36.5 91.5v426
q0 55 -36.5 91.5t-91.5 36.5v0zM896 299q0 -20 -11.5 -31.5t-31.5 -11.5h-682q-20 0 -31.5 11.5t-11.5 31.5v426q0 20 11.5 31.5t31.5 11.5h682q20 0 31.5 -11.5t11.5 -31.5v-426z" />
    <glyph glyph-name="uniE99A" unicode="&#xe99a;" 
d="M917 431q-9 6 -23 5.5t-24 -9.5q-33 -26 -72 -39t-79 -13t-79 13t-73 39q-43 32 -69 75q-26 44 -33.5 92.5t3.5 97.5q12 50 44 93q6 10 8.5 22t-4.5 25q-6 10 -18 15.5t-24 5.5q-77 -6 -144 -38q-68 -32 -119 -83t-83 -119q-32 -67 -38 -144q-8 -88 18 -168
q26 -81 78 -144t126 -104t162 -49h18.5h19.5q74 0 144.5 25t128.5 73q34 28 60 60q26 33 45.5 69.5t31.5 77.5q12 40 17 84q0 9 -6 20.5t-16 17.5v0zM734 166q-51 -44 -115.5 -63.5t-132.5 -12.5q-70 6 -129 38q-59 33 -101 83.5t-62 114.5q-21 64 -15 135q5 49 23 95
q19 45 48 83t68 67q38 29 83 45q-19 -51 -20 -106q-1 -54 14.5 -106t46.5 -99q32 -46 79 -82q35 -25 74 -41q40 -16 81 -22t83 -2t82 18q-20 -41 -46 -78.5t-61 -66.5z" />
    <glyph glyph-name="uniE99B" unicode="&#xe99b;" 
d="M597 427q0 -36 -25 -61t-60 -25t-60 25t-25 61q0 35 25 60t60 25t60 -25t25 -60zM896 427q0 -36 -25 -61t-60 -25q-36 0 -61 25t-25 61q0 35 25 60t61 25q35 0 60 -25t25 -60zM299 427q0 -36 -25 -61t-61 -25q-35 0 -60 25t-25 61q0 35 25 60t60 25q36 0 61 -25t25 -60z
" />
    <glyph glyph-name="uniE99C" unicode="&#xe99c;" 
d="M597 427q0 -36 -25 -61t-60 -25t-60 25t-25 61q0 35 25 60t60 25t60 -25t25 -60zM597 725q0 -35 -25 -60t-60 -25t-60 25t-25 60q0 36 25 61t60 25t60 -25t25 -61zM597 128q0 -35 -25 -60t-60 -25t-60 25t-25 60t25 60t60 25t60 -25t25 -60z" />
    <glyph glyph-name="uniE99D" unicode="&#xe99d;" 
d="M977 410q3 6 3 15t-3 19q-3 3 -4 6t-4 7l-128 128q-13 12 -30 12t-30 -12q-13 -13 -13 -30t13 -30l55 -56h-281v282l55 -56q7 -6 13.5 -9t16.5 -3t16.5 3t13.5 9q13 13 13 30t-13 30l-128 128q-3 3 -6.5 6t-6.5 3q-6 3 -15 3t-19 -3q-3 -3 -6.5 -4.5t-6.5 -4.5l-128 -128
q-13 -13 -13 -30t13 -30q13 -12 30 -12t30 12l55 56v-282h-281l55 56q13 13 13 30t-13 30q-13 12 -30 12t-30 -12l-128 -128q-3 -4 -5.5 -7t-2.5 -6q-3 -7 -3 -16t3 -18q3 -4 4 -7t4 -6l128 -128q7 -7 14 -10t16 -3q10 0 17 3t13 10q13 13 13 30t-13 30l-55 55h281v-282
l-55 56q-13 13 -30 13t-30 -13t-13 -30t13 -30l128 -128q3 -3 6.5 -5.5t6.5 -2.5q3 -4 8.5 -4.5t8.5 -0.5t8.5 0.5t8.5 4.5q3 3 6.5 4t6.5 4l128 128q13 13 13 30t-13 30t-30 13t-30 -13l-55 -56v282h281l-55 -55q-13 -13 -13 -30t13 -30q6 -7 14.5 -10t15.5 -3q6 0 14.5 3
t15.5 10l128 128q3 3 5.5 6t2.5 7v0z" />
    <glyph glyph-name="uniE99E" unicode="&#xe99e;" 
d="M922 845q-7 6 -16 7t-19 1l-512 -85q-12 -3 -23 -15t-11 -28v-469h-128q-54 0 -91 -37t-37 -91t37 -91t91 -37h86q54 0 91 37t37 91v563l426 73v-423h-128q-54 0 -91 -36.5t-37 -91.5q0 -54 37 -91t91 -37h86q54 0 91 37t37 91v598q0 9 -4 18t-13 16v0zM341 128
q0 -19 -11.5 -31t-30.5 -12h-86q-19 0 -30.5 12t-11.5 31t11.5 31t30.5 12h128v-43v0zM853 213q0 -19 -11.5 -30.5t-30.5 -11.5h-86q-19 0 -30.5 11.5t-11.5 30.5q0 20 11.5 31.5t30.5 11.5h128v-43z" />
    <glyph glyph-name="uniE99F" unicode="&#xe99f;" 
d="M969 883q-10 10 -22.5 12.5t-24.5 -3.5l-811 -384q-13 -7 -19.5 -18.5t-6.5 -24.5t9 -24t25 -14l316 -81l81 -316q3 -13 14.5 -22t24.5 -12h2h2q13 0 22.5 6.5t15.5 18.5l384 811q4 16 0.5 29t-12.5 22v0zM567 171l-55 222q-3 12 -11.5 19t-18.5 10l-226 60l593 282z" />
    <glyph glyph-name="uniE9A0" unicode="&#xe9a0;" 
d="M849 55l-299 811q-3 13 -14 21.5t-24 8.5t-24 -8.5t-14 -21.5l-299 -811q-3 -12 0 -24.5t13 -21.5q9 -10 23 -10.5t24 5.5l277 158l277 -158q7 -3 11 -3.5t11 -0.5q6 0 14 2.5t11 6.5q13 9 16 23t-3 23v0zM533 252q-6 3 -10.5 3.5t-10.5 0.5t-10.5 -0.5t-10.5 -3.5
l-197 -111l218 589l218 -593l-197 115v0z" />
    <glyph glyph-name="uniE9A1" unicode="&#xe9a1;" 
d="M969 631l-252 252q-3 7 -11.5 10t-18.5 3h-350q-10 0 -18.5 -3t-11.5 -10l-252 -252q-6 -3 -9 -11.5t-3 -17.5v-355q0 -9 3 -16t9 -13l252 -252q3 -3 11.5 -6t18.5 -3h354q10 0 17 3.5t13 9.5l252 252q6 6 9.5 13t3.5 17v350q-4 9 -7.5 17.5t-9.5 11.5v0zM896 269
l-226 -226h-316l-226 226v316l226 226h320l222 -226v-316v0z" />
    <glyph glyph-name="uniE9A2" unicode="&#xe9a2;" 
d="M909 742l-342 171v0v0q-25 13 -55.5 13t-59.5 -13l-341 -171q-32 -16 -50 -45.5t-18 -65.5v-405q0 -35 18.5 -67t53.5 -48l342 -171q12 -6 27 -9.5t28 -3.5q16 0 29.5 3.5t25.5 9.5l342 171q32 16 52 46.5t20 68.5v405q0 36 -18.5 65.5t-53.5 45.5zM495 841q3 3 8.5 3.5
t8.5 0.5q6 0 10 -0.5t7 -3.5l316 -158l-120 -60l-332 166zM512 516l-333 167l120 59l332 -166zM149 183q-9 7 -15 18t-6 21v392l341 -170v-418l-320 157v0zM870 183l-315 -157v418l341 170v-392q0 -13 -6.5 -22.5t-19.5 -16.5z" />
    <glyph glyph-name="uniE9A3" unicode="&#xe9a3;" 
d="M943 499q-13 13 -30 13t-30 -13l-392 -392q-32 -32 -72 -48q-39 -16 -80 -16t-80 16t-71 48t-48 71t-16 80t16 80q16 40 48 72l392 392q35 35 89.5 35t89.5 -35q39 -38 39 -91t-39 -88l-392 -393q-13 -12 -30 -12t-30 12q-3 4 -5.5 10t-2.5 16t3 16.5t9 13.5l363 363
q13 12 13 29t-13 30t-30 13t-30 -13l-362 -362q-19 -16 -29 -40t-10 -50t10 -50t29 -40q38 -38 91 -38t88 38l392 393q32 32 48 71q16 40 16 80.5t-16 80.5q-16 39 -48 71q-28 29 -67.5 46.5t-81.5 17.5q-41 0 -80.5 -16t-68.5 -48l-393 -393q-43 -43 -65 -98
q-21 -55 -21 -112.5t21 -113.5q22 -55 65 -98q45 -45 100.5 -65t113.5 -20q57 0 112.5 21.5t100.5 63.5l392 392q7 10 6 28.5t-14 31.5v0z" />
    <glyph glyph-name="uniE9A4" unicode="&#xe9a4;" 
d="M427 811h-171q-19 0 -31 -12t-12 -31v-683q0 -19 12 -30.5t31 -11.5h171q19 0 30.5 11.5t11.5 30.5v683q0 19 -11.5 31t-30.5 12v0zM384 128h-85v597h85v-597zM768 811h-171q-19 0 -30.5 -12t-11.5 -31v-683q0 -19 11.5 -30.5t30.5 -11.5h171q19 0 31 11.5t12 30.5v683
q0 19 -12 31t-31 12v0zM725 128h-85v597h85v-597z" />
    <glyph glyph-name="uniE9A5" unicode="&#xe9a5;" 
d="M512 896q-98 0 -183 -37q-86 -36 -149.5 -100t-100.5 -149q-36 -86 -36 -183q0 -98 36 -183q37 -86 100.5 -149.5t149.5 -100.5q85 -37 183 -37t183 37q86 37 149.5 100.5t100.5 149.5q36 85 36 183q0 97 -36 183q-37 85 -100.5 149t-149.5 100q-85 37 -183 37zM512 43
q-80 0 -150 30t-122 82t-82 122t-30 150t30 150t82 122t122 82t150 30t150 -30t122 -82t82 -122t30 -150t-30 -150t-82 -122t-122 -82t-150 -30zM427 597q-20 0 -31.5 -11.5t-11.5 -30.5v-256q0 -20 11.5 -31.5t31.5 -11.5q19 0 30.5 11.5t11.5 31.5v256q0 19 -11.5 30.5
t-30.5 11.5v0zM597 597q-19 0 -30.5 -11.5t-11.5 -30.5v-256q0 -20 11.5 -31.5t30.5 -11.5q20 0 31.5 11.5t11.5 31.5v256q0 19 -11.5 30.5t-31.5 11.5z" />
    <glyph glyph-name="uniE9A6" unicode="&#xe9a6;" 
d="M841 755q-13 13 -30 13t-30 -13l-598 -597q-12 -13 -12 -30t12 -30q7 -6 14 -9.5t16 -3.5q10 0 17 3.5t13 9.5l598 597q12 13 12 30t-12 30v0zM277 512q61 0 105.5 44.5t44.5 104.5q0 61 -44.5 105.5t-105.5 44.5q-60 0 -104.5 -44.5t-44.5 -105.5q0 -60 44.5 -104.5
t104.5 -44.5v0zM277 725q26 0 45 -19t19 -45q0 -25 -19 -44.5t-45 -19.5q-25 0 -44.5 19.5t-19.5 44.5q0 26 19.5 45t44.5 19zM747 341q-61 0 -105.5 -44t-44.5 -105t44.5 -105t105.5 -44q60 0 104.5 44t44.5 105t-44.5 105t-104.5 44zM747 128q-26 0 -45 19t-19 45t19 45
t45 19q25 0 44.5 -19t19.5 -45t-19.5 -45t-44.5 -19z" />
    <glyph glyph-name="uniE9A7" unicode="&#xe9a7;" 
d="M870 346q-28 3 -56.5 9.5t-54.5 15.5q-35 13 -71 4.5t-65 -34.5l-30 -30q-58 39 -108 87.5t-88 109.5l30 30q25 25 33.5 63t-3.5 73q-10 26 -16.5 54t-9.5 57q-6 48 -43 79.5t-85 31.5v0v0h-128h-6.5h-6.5q-25 -3 -47 -15.5t-38 -31.5t-23 -43.5t-7 -50.5q5 -51 16 -102
q12 -51 29.5 -100t40.5 -96t50 -90q26 -40 56 -77q30 -38 64 -72t72 -64q37 -30 77 -56q43 -29 90 -52t96.5 -40t99.5 -28q51 -12 103 -16h6h6v0v0q26 0 50 9.5t40 28.5t27 41.5t11 48.5v128q0 48 -31.5 84.5t-79.5 43.5v0zM896 218v-128q0 -10 -3 -17t-10 -13
q-6 -7 -13.5 -10t-20.5 -3q-46 5 -92 15q-45 10 -89 26t-87 36q-42 21 -82 47q-37 22 -70 49q-34 27 -64.5 58t-57.5 65t-51 71q-26 40 -46 82q-21 42 -36.5 86t-26.5 90q-10 45 -15 92q0 9 3 16l6 14q6 6 15 11.5t19 5.5h128v0v0q16 0 27.5 -11.5t15.5 -27.5
q3 -32 12 -65.5t22 -62.5q3 -13 0.5 -25t-9.5 -22l-55 -51q-10 -9 -12.5 -23.5t3.5 -27.5q24 -43 54 -82q29 -39 63.5 -73.5t73.5 -64.5q39 -29 82 -53q13 -7 27.5 -5.5t23.5 13.5l56 56q10 9 22 12t25 -4q32 -12 64 -19.5t64 -14.5q13 -3 23.5 -14.5t10.5 -27.5v0v0v0z" />
    <glyph glyph-name="uniE9A8" unicode="&#xe9a8;" 
d="M870 346q-28 3 -56.5 9.5t-54.5 15.5q-35 13 -71 4.5t-65 -34.5l-30 -30q-58 39 -108 87.5t-88 109.5l30 30q25 25 33.5 63t-3.5 73q-10 26 -16.5 54t-9.5 57q-6 48 -43 79.5t-85 31.5v0v0h-128h-6.5h-6.5q-25 -3 -47 -15.5t-38 -31.5t-23 -43.5t-7 -50.5q5 -51 16 -102
q12 -51 29.5 -100t40.5 -96t50 -90q26 -40 56 -77q30 -38 64 -72t72 -64q37 -30 77 -56q43 -29 90 -52t96.5 -40t99.5 -28q51 -12 103 -16h6h6v0v0q26 0 50 9.5t40 28.5t27 41.5t11 48.5v128q0 48 -31.5 84.5t-79.5 43.5v0zM896 218v-128q0 -10 -3 -17t-10 -13
q-6 -7 -13.5 -10t-20.5 -3q-46 5 -92 15q-45 10 -89 26t-87 36q-42 21 -82 47q-37 22 -70 49q-34 27 -64.5 58t-57.5 65t-51 71q-26 40 -46 82q-21 42 -36.5 86t-26.5 90q-10 45 -15 92q0 9 3 16l6 14q6 6 15 11.5t19 5.5h128v0v0q16 0 27.5 -11.5t15.5 -27.5
q3 -32 12 -65.5t22 -62.5q3 -13 0.5 -25t-9.5 -22l-55 -51q-10 -9 -12.5 -23.5t3.5 -27.5q24 -43 54 -82q29 -39 63.5 -73.5t73.5 -64.5q39 -29 82 -53q13 -7 27.5 -5.5t23.5 13.5l56 56q10 9 22 12t25 -4q32 -12 64 -19.5t64 -14.5q13 -3 23.5 -14.5t10.5 -27.5v0v0v0z
M649 939q-16 3 -30 -8.5t-17 -30.5q-4 -16 7.5 -29.5t30.5 -17.5q59 -6 111 -31q52 -26 92 -66t66 -92q26 -53 34 -114q3 -16 15 -27t28 -11h2h2q16 3 27 17t11 30q-9 75 -42 141t-83.5 116t-115.5 83q-65 32 -138 40v0zM768 550q3 -16 15 -25t28 -9h4h4q16 3 27 17.5
t7 33.5q-16 77 -69.5 132.5t-130.5 68.5q-16 3 -32 -6t-19 -28q-4 -19 5.5 -33.5t28.5 -17.5q51 -10 86.5 -45.5t45.5 -87.5z" />
    </font>
</defs>
</svg>
